<svg width="349" height="79" viewBox="0 0 349 79" fill="none" xmlns="http://www.w3.org/2000/svg">
<g clip-path="url(#clip0_22_17)">
<path d="M164.494 8.12598H161.475C149.678 8.12598 140.115 17.68 140.115 29.4655V31.9348C140.115 43.7203 149.678 53.2743 161.475 53.2743H164.494C176.292 53.2743 185.855 43.7203 185.855 31.9348V29.4655C185.855 17.68 176.292 8.12598 164.494 8.12598Z" fill="#F5EED8"/>
<path d="M53.6273 22.0418C59.8746 24.1867 63.3899 28.6742 63.3899 35.4999C63.3899 50.2582 48.2899 57.475 33.061 57.475C21.1515 57.475 14.7084 51.1028 14.7084 43.5614C14.7084 37.3202 18.9378 31.7281 24.927 29.6477L30.3289 7.8659C30.9808 5.32987 29.0274 4.42082 26.0995 4.42082H21.6743C10.935 4.42082 5.01254 10.0774 5.01254 16.9698C5.01254 21.7151 7.1595 24.1222 10.2186 24.1222C11.7805 24.1222 12.8217 23.1465 12.8217 21.7818C12.8217 20.4171 12.0408 19.5058 12.0408 17.7499C12.0408 14.2382 14.448 12.0933 17.3114 12.0933C20.9557 12.0933 23.0381 14.8894 23.0381 17.8789C23.0381 23.86 18.0923 28.8009 11.0619 28.8009C5.07706 28.8031 0 24.8379 0 16.9698C0 6.5012 9.56677 0 21.6721 0H47.4445C60.3307 0 67.4257 2.14484 67.4257 9.75291C67.4257 17.361 62.0883 20.935 53.6273 22.0418ZM51.8697 35.1087C51.8697 27.6318 48.8751 23.731 41.8468 23.731H38.3316L36.7053 30.2322C40.1537 31.857 42.2362 34.8487 42.2362 38.5538C42.2362 42.2589 40.0225 46.6153 35.337 46.6153C32.4736 46.6153 30.3267 44.5993 30.3267 42.2589C30.3267 38.7472 33.7752 38.2937 33.7752 36.0178C33.7752 34.7175 32.6027 33.2861 29.2187 33.2861C24.5977 33.2861 19.4561 36.6668 19.4561 43.2346C19.4561 49.8025 25.7035 53.052 33.6439 53.052C43.0816 53.052 51.8675 48.1111 51.8675 35.1065L51.8697 35.1087ZM44.7769 19.3102C50.9597 19.3102 54.9956 16.2541 54.9956 9.49286C54.9956 5.46101 52.1322 4.42082 47.5113 4.42082H44.9082C43.7357 4.42082 42.9548 5.20096 42.63 6.37229L39.375 19.3102H44.7769Z" fill="#F5EED8"/>
<path d="M89.4333 40.5052C90.7349 40.1163 91.4513 41.0898 91.4513 42.7167C91.4513 43.368 91.3222 44.0814 90.9952 44.4082L85.2685 47.0086C84.0315 47.5932 83.2505 47.8532 82.3406 47.8532C81.0391 47.8532 79.8666 46.553 80.1936 43.4324L80.3227 42.1966H80.2581C79.0879 44.4082 76.4826 47.9821 72.578 47.9821C68.2819 47.9821 65.6788 43.9503 65.6788 37.189C65.6788 24.9668 71.4055 16.8386 77.7196 16.8386C80.5184 16.8386 81.949 18.27 82.9902 19.8303H83.0548L83.3151 17.4899H91.0597L88.1963 41.0253V41.1542L89.4333 40.503V40.5052ZM79.8021 21.195C75.5727 21.195 73.6838 31.3369 73.6838 37.7736C73.6838 41.1542 74.2689 42.779 76.0265 42.779C78.2402 42.779 80.6475 39.2028 81.1681 35.042L82.6009 23.3398C82.0803 22.104 81.2994 21.195 79.8021 21.195Z" fill="#F5EED8"/>
<path d="M101.41 36.4089C101.41 40.7008 102.255 43.4302 104.794 43.4302C107.657 43.4302 108.373 40.0496 110.327 40.0496C111.628 40.0496 112.213 40.8942 112.213 42.0011C112.213 44.277 109.09 48.1777 103.167 48.1777C97.2448 48.1777 92.5593 43.7569 92.5593 35.0442C92.5593 23.2754 99.523 16.7097 107.203 16.7097C111.628 16.7097 113.907 18.6612 113.907 21.2617C113.907 22.7575 113.257 23.7332 111.953 23.7332C109.871 23.7332 110.26 20.9372 107.268 20.9372C103.363 20.9372 101.41 30.6901 101.41 36.4111V36.4089Z" fill="#F5EED8"/>
<path d="M123.278 31.3369C127.118 22.8198 132.716 16.9032 136.945 16.9032C138.832 16.9032 139.873 18.0745 139.873 19.7637C139.873 21.4529 138.44 22.1041 136.685 22.8198C132.324 24.7046 129.329 27.1117 126.793 30.6212L126.858 30.7502C127.703 30.1656 129.265 29.2543 131.218 29.2543C134.538 29.2543 137.009 31.6592 136.164 38.8761L135.904 41.0876V41.1521L137.141 40.5008C138.378 40.1119 139.159 41.0854 139.159 42.6457C139.159 43.3614 139.027 44.0771 138.703 44.4016L133.105 46.9376C131.868 47.5221 131.087 47.8489 130.046 47.8489C128.68 47.8489 127.572 46.4175 127.899 43.4281L128.355 39.8518C128.68 36.5357 128.355 33.8707 126.401 33.8707C125.035 33.8707 123.278 35.0421 122.432 37.0558L121.195 47.3288H113.451L118.267 7.99262H117.487C116.574 7.99262 115.925 7.21248 115.925 5.9767C115.925 4.54532 116.577 3.76518 116.837 3.44067H126.468L123.149 31.3325H123.278V31.3369Z" fill="#F5EED8"/>
<path d="M149.88 26.887C148.732 26.887 148.41 25.9691 148.41 25.0978C148.41 22.8952 150.063 22.6196 151.578 21.5194C154.241 19.5457 154.517 14.4092 157.823 14.4092C159.385 14.4092 159.614 15.5561 159.614 16.3362C159.614 18.7211 158.008 19.2256 157.87 22.6218H158.559C159.707 22.6218 160.397 23.3108 160.397 24.411C160.397 25.6046 159.939 26.8893 158.101 26.8893H157.734L156.633 37.4868V37.5334L156.909 37.4868C157.919 37.3023 158.562 37.9446 158.562 39.3671C158.562 40.0095 158.424 40.6985 158.057 41.0652L153.785 42.9011C152.499 43.4523 151.856 43.6812 151.122 43.6812C149.469 43.6812 148.321 42.4877 148.597 39.8739L150.067 26.8915H149.883L149.88 26.887Z" fill="black"/>
<path d="M159.844 33.9063C159.844 25.8315 165.033 21.1528 170.773 21.1528C176.513 21.1528 179.176 25.3736 179.176 31.0613C179.176 39.1361 173.85 43.9059 168.201 43.9059C162.232 43.9059 159.842 39.6385 159.842 33.9041L159.844 33.9063ZM171.509 27.5762C171.509 25.6025 171.186 25.0069 170.314 25.0069C168.339 25.0069 167.467 35.5577 167.467 37.3025C167.467 39.2762 167.834 39.963 168.661 39.963C170.499 39.963 171.509 30.1456 171.509 27.5762Z" fill="black"/>
<path d="M267.971 41.8988C269.273 41.5098 269.989 42.4833 269.989 44.1103C269.989 44.7615 269.86 45.475 269.533 45.8017L263.806 48.4022C262.569 48.9867 261.789 49.2468 260.879 49.2468C259.577 49.2468 258.405 47.9465 258.732 44.826L258.861 43.5902H258.796C257.626 45.8017 255.021 49.3757 251.116 49.3757C246.82 49.3757 244.217 45.3438 244.217 38.5826C244.217 26.3603 249.944 18.2322 256.258 18.2322C259.056 18.2322 260.487 19.6636 261.53 21.2238H261.595L261.855 18.8834H269.6L266.737 42.4189V42.5478L267.974 41.8965L267.971 41.8988ZM258.338 22.5885C254.108 22.5885 252.22 32.7304 252.22 39.1672C252.22 42.5478 252.805 44.1725 254.562 44.1725C256.776 44.1725 259.183 40.5963 259.704 36.4355L261.137 24.7334C260.616 23.4976 259.835 22.5885 258.338 22.5885Z" fill="#F5EED8"/>
<path d="M284.307 17.9077C289.188 17.9077 291.466 20.0526 291.466 22.5241C291.466 23.8888 290.816 24.8001 289.448 24.8001C287.17 24.8001 287.43 21.8751 284.307 21.8751C282.68 21.8751 281.312 23.2398 281.312 25.3202C281.312 30.0011 290.75 29.352 290.75 38.4537C290.75 45.8017 285.023 49.7025 278.969 49.7025C273.696 49.7025 270.769 46.6463 270.769 43.2657C270.769 41.5098 271.745 40.6008 272.916 40.6008C275.714 40.6008 275.454 45.0216 279.619 45.0216C281.441 45.0216 283.199 43.5902 283.199 40.9253C283.199 35.3332 273.307 36.7001 273.307 27.6606C273.307 22.5241 277.147 17.9077 284.307 17.9077Z" fill="#F5EED8"/>
<path d="M296.672 24.929L295.435 25.5802C294.262 25.9047 293.353 24.9956 293.353 23.4354C293.353 22.7197 293.482 22.0707 293.873 21.6795L299.535 19.079C300.837 18.5589 301.553 18.2988 302.399 18.2988C303.765 18.2988 305.066 19.339 304.677 22.4596L301.553 48.7267H293.809L296.672 24.9956V24.9312V24.929ZM302.267 5.03418C305.195 5.03418 306.564 6.7256 306.564 9.13049C306.564 11.731 304.806 13.8758 301.814 13.8758C298.821 13.8758 297.453 12.3155 297.453 9.7795C297.453 7.24348 299.275 5.03418 302.27 5.03418H302.267Z" fill="#F5EED8"/>
<path d="M315.025 37.8025C315.025 42.0944 315.87 44.8238 318.409 44.8238C321.272 44.8238 321.988 41.4431 323.942 41.4431C325.243 41.4431 325.828 42.2877 325.828 43.3946C325.828 45.6706 322.705 49.5713 316.782 49.5713C310.86 49.5713 306.174 45.1505 306.174 36.4378C306.174 24.6689 313.138 18.1033 320.818 18.1033C325.243 18.1033 327.522 20.0547 327.522 22.6552C327.522 24.1511 326.87 25.1268 325.568 25.1268C323.486 25.1268 323.875 22.3307 320.883 22.3307C316.978 22.3307 315.025 32.0836 315.025 37.8047V37.8025Z" fill="#F5EED8"/>
<path d="M340.603 17.9077C345.484 17.9077 347.762 20.0526 347.762 22.5241C347.762 23.8888 347.11 24.8001 345.744 24.8001C343.466 24.8001 343.726 21.8751 340.603 21.8751C338.976 21.8751 337.608 23.2398 337.608 25.3202C337.608 30.0011 347.046 29.352 347.046 38.4537C347.046 45.8017 341.319 49.7025 335.265 49.7025C329.992 49.7025 327.064 46.6463 327.064 43.2657C327.064 41.5098 328.041 40.6008 329.211 40.6008C332.01 40.6008 331.75 45.0216 335.915 45.0216C337.737 45.0216 339.495 43.5902 339.495 40.9253C339.495 35.3332 329.603 36.7001 329.603 27.6606C329.603 22.5241 333.443 17.9077 340.603 17.9077Z" fill="#F5EED8"/>
<path d="M233.505 23.4354C239.752 25.5803 243.267 30.0678 243.267 36.8935C243.267 51.6517 228.167 58.8686 212.938 58.8686C201.029 58.8686 194.586 52.4963 194.586 44.9549C194.586 38.7138 198.815 33.1217 204.804 31.0413L210.206 9.25948C210.856 6.72345 208.905 5.8144 205.977 5.8144H201.552C190.812 5.8144 184.89 11.471 184.89 18.3634C184.89 23.1087 187.037 25.5158 190.096 25.5158C191.658 25.5158 192.699 24.5401 192.699 23.1754C192.699 21.8107 191.918 20.8994 191.918 19.1435C191.918 15.6318 194.325 13.4869 197.189 13.4869C200.833 13.4869 202.916 16.283 202.916 19.2724C202.916 25.2535 197.97 30.1945 190.942 30.1945C184.954 30.1945 179.877 26.2293 179.877 18.3612C179.877 7.89256 189.444 1.39136 201.55 1.39136H227.322C240.208 1.39136 247.303 3.5362 247.303 11.1443C247.303 18.7523 241.966 22.3263 233.507 23.4332L233.505 23.4354ZM231.747 36.5045C231.747 29.0276 228.753 25.1268 221.724 25.1268H218.209L216.583 31.628C220.031 33.2528 222.114 36.2445 222.114 39.9496C222.114 43.6547 219.9 48.0111 215.214 48.0111C212.351 48.0111 210.204 45.9951 210.204 43.6547C210.204 40.143 213.653 39.6895 213.653 37.4136C213.653 36.1133 212.48 34.6819 209.096 34.6819C204.475 34.6819 199.334 38.0626 199.334 44.6304C199.334 51.1983 205.581 54.4478 213.521 54.4478C222.959 54.4478 231.745 49.5069 231.745 36.5023L231.747 36.5045ZM224.654 20.7038C230.837 20.7038 234.873 17.6477 234.873 10.8864C234.873 6.85459 232.01 5.8144 227.389 5.8144H224.786C223.613 5.8144 222.832 6.59454 222.507 7.76587L219.252 20.7038H224.654Z" fill="#F5EED8"/>
</g>
<path d="M21.4192 72.5831V75.6566C21.305 75.8077 21.1262 75.9735 20.883 76.1541C20.6435 76.331 20.3247 76.4839 19.9267 76.6129C19.5287 76.7419 19.033 76.8064 18.4397 76.8064C17.9348 76.8064 17.4724 76.7216 17.0522 76.5521C16.6321 76.3789 16.2691 76.1264 15.9633 75.7948C15.6611 75.4631 15.4271 75.0596 15.2612 74.5842C15.0954 74.1051 15.0125 73.5597 15.0125 72.9479V72.3896C15.0125 71.7816 15.088 71.2399 15.2391 70.7645C15.3939 70.2854 15.615 69.88 15.9025 69.5483C16.1899 69.2167 16.5363 68.9661 16.9417 68.7966C17.3507 68.6234 17.8132 68.5368 18.3292 68.5368C18.9888 68.5368 19.5342 68.6473 19.9654 68.8684C20.4002 69.0859 20.7356 69.388 20.9715 69.775C21.2073 70.1619 21.3566 70.6042 21.4192 71.1017H20.0594C20.0151 70.8216 19.9285 70.571 19.7996 70.3499C19.6743 70.1288 19.4937 69.9556 19.2578 69.8303C19.0257 69.7013 18.7235 69.6368 18.3513 69.6368C18.0307 69.6368 17.7487 69.6976 17.5055 69.8192C17.2623 69.9408 17.0596 70.1196 16.8975 70.3554C16.739 70.5913 16.6192 70.8787 16.5382 71.2177C16.4571 71.5568 16.4165 71.9437 16.4165 72.3786V72.9479C16.4165 73.3902 16.4626 73.7826 16.5547 74.1254C16.6506 74.4681 16.7869 74.7574 16.9638 74.9932C17.1444 75.2291 17.3636 75.4078 17.6216 75.5294C17.8796 75.6474 18.1707 75.7063 18.495 75.7063C18.8119 75.7063 19.0717 75.6805 19.2744 75.6289C19.4771 75.5737 19.6374 75.5092 19.7553 75.4355C19.8769 75.3581 19.9709 75.2844 20.0373 75.2143V73.6168H18.3623V72.5831H21.4192ZM29.1703 68.6473H30.5522V74.0259C30.5522 74.6376 30.4196 75.1499 30.1542 75.5626C29.8889 75.9753 29.5278 76.2867 29.0708 76.4968C28.6175 76.7032 28.1108 76.8064 27.5506 76.8064C26.9721 76.8064 26.4561 76.7032 26.0029 76.4968C25.5496 76.2867 25.1921 75.9753 24.9305 75.5626C24.6725 75.1499 24.5435 74.6376 24.5435 74.0259V68.6473H25.9255V74.0259C25.9255 74.4128 25.9918 74.7316 26.1245 74.9822C26.2571 75.2291 26.4451 75.4115 26.6883 75.5294C26.9315 75.6474 27.219 75.7063 27.5506 75.7063C27.8823 75.7063 28.1679 75.6474 28.4075 75.5294C28.6507 75.4115 28.8386 75.2291 28.9713 74.9822C29.104 74.7316 29.1703 74.4128 29.1703 74.0259V68.6473ZM35.2409 68.6473V76.6958H33.8534V68.6473H35.2409ZM41.8975 69.7197L39.4929 76.6958H38.0391L41.0683 68.6473H41.997L41.8975 69.7197ZM43.9096 76.6958L41.4995 69.7197L41.3945 68.6473H42.3287L45.369 76.6958H43.9096ZM43.7935 73.7108V74.8108H39.4155V73.7108H43.7935ZM55.5423 73.6942H53.4473V72.5942H55.5423C55.9072 72.5942 56.202 72.5352 56.4268 72.4173C56.6516 72.2994 56.8156 72.1372 56.9188 71.9308C57.0256 71.7208 57.0791 71.4812 57.0791 71.2122C57.0791 70.9579 57.0256 70.7202 56.9188 70.4991C56.8156 70.2743 56.6516 70.0938 56.4268 69.9574C56.202 69.8211 55.9072 69.7529 55.5423 69.7529H53.8729V76.6958H52.4855V68.6473H55.5423C56.1651 68.6473 56.694 68.7579 57.1288 68.979C57.5674 69.1964 57.9009 69.4986 58.1294 69.8855C58.3578 70.2688 58.4721 70.7073 58.4721 71.2012C58.4721 71.7208 58.3578 72.1667 58.1294 72.5389C57.9009 72.9111 57.5674 73.1967 57.1288 73.3957C56.694 73.5947 56.1651 73.6942 55.5423 73.6942ZM63.708 69.7197L61.3034 76.6958H59.8496L62.8788 68.6473H63.8075L63.708 69.7197ZM65.7201 76.6958L63.31 69.7197L63.205 68.6473H64.1392L67.1795 76.6958H65.7201ZM65.6041 73.7108V74.8108H61.226V73.7108H65.6041ZM69.7787 68.6473H72.6255C73.2372 68.6473 73.7587 68.7394 74.1898 68.9237C74.621 69.108 74.9508 69.3807 75.1793 69.7418C75.4115 70.0993 75.5276 70.5415 75.5276 71.0685C75.5276 71.4702 75.4539 71.824 75.3065 72.1298C75.159 72.4357 74.9508 72.6937 74.6818 72.9037C74.4128 73.1101 74.0922 73.2704 73.72 73.3846L73.2999 73.5892H70.7405L70.7294 72.4891H72.6476C72.9793 72.4891 73.2556 72.4302 73.4768 72.3123C73.6979 72.1943 73.8637 72.034 73.9743 71.8313C74.0885 71.625 74.1456 71.3928 74.1456 71.1348C74.1456 70.8548 74.0903 70.6115 73.9798 70.4052C73.8729 70.1951 73.7071 70.0348 73.4823 69.9242C73.2575 69.81 72.9719 69.7529 72.6255 69.7529H71.1661V76.6958H69.7787V68.6473ZM74.3723 76.6958L72.4817 73.0806L73.9356 73.0751L75.8537 76.6239V76.6958H74.3723ZM81.7419 69.7197L79.3373 76.6958H77.8835L80.9128 68.6473H81.8414L81.7419 69.7197ZM83.754 76.6958L81.3439 69.7197L81.2389 68.6473H82.1731L85.2134 76.6958H83.754ZM83.638 73.7108V74.8108H79.2599V73.7108H83.638ZM97.0838 74.0756H98.4657C98.4215 74.6026 98.2741 75.0725 98.0235 75.4852C97.7729 75.8943 97.421 76.2167 96.9677 76.4526C96.5144 76.6884 95.9635 76.8064 95.3149 76.8064C94.8174 76.8064 94.3696 76.7179 93.9716 76.541C93.5736 76.3604 93.2328 76.1062 92.949 75.7782C92.6652 75.4465 92.4478 75.0467 92.2967 74.5787C92.1493 74.1106 92.0756 73.5873 92.0756 73.0088V72.3399C92.0756 71.7613 92.1511 71.238 92.3022 70.77C92.457 70.302 92.6781 69.9021 92.9656 69.5705C93.253 69.2351 93.5976 68.979 93.9993 68.8021C94.4046 68.6252 94.8598 68.5368 95.3646 68.5368C96.0059 68.5368 96.5476 68.6547 96.9898 68.8905C97.432 69.1264 97.7748 69.4525 98.018 69.869C98.2649 70.2854 98.416 70.7626 98.4713 71.3007H97.0893C97.0525 70.9543 96.9714 70.6576 96.8461 70.4107C96.7245 70.1638 96.5439 69.9758 96.3044 69.8469C96.0648 69.7142 95.7516 69.6478 95.3646 69.6478C95.0477 69.6478 94.7713 69.7068 94.5355 69.8247C94.2996 69.9427 94.1025 70.1159 93.944 70.3444C93.7855 70.5728 93.6658 70.8548 93.5847 71.1901C93.5073 71.5218 93.4686 71.9014 93.4686 72.3288V73.0088C93.4686 73.4141 93.5036 73.7826 93.5736 74.1143C93.6473 74.4423 93.7579 74.7242 93.9053 74.9601C94.0564 75.1959 94.248 75.3783 94.4802 75.5073C94.7124 75.6363 94.9906 75.7008 95.3149 75.7008C95.7092 75.7008 96.028 75.6381 96.2712 75.5129C96.5181 75.3876 96.7042 75.2051 96.8295 74.9656C96.9585 74.7224 97.0433 74.4257 97.0838 74.0756ZM104.558 69.7197L102.154 76.6958H100.7L103.729 68.6473H104.658L104.558 69.7197ZM106.571 76.6958L104.16 69.7197L104.055 68.6473H104.99L108.03 76.6958H106.571ZM106.455 73.7108V74.8108H102.077V73.7108H106.455ZM113.244 68.6473V76.6958H111.867V68.6473H113.244ZM115.77 68.6473V69.7529H109.363V68.6473H115.77ZM124.792 72.4504V72.8927C124.792 73.5007 124.713 74.0461 124.555 74.5289C124.396 75.0117 124.17 75.4226 123.875 75.7616C123.584 76.1006 123.234 76.3604 122.825 76.541C122.416 76.7179 121.962 76.8064 121.465 76.8064C120.971 76.8064 120.519 76.7179 120.11 76.541C119.705 76.3604 119.353 76.1006 119.055 75.7616C118.756 75.4226 118.524 75.0117 118.358 74.5289C118.196 74.0461 118.115 73.5007 118.115 72.8927V72.4504C118.115 71.8424 118.196 71.2988 118.358 70.8197C118.52 70.337 118.749 69.9261 119.044 69.587C119.342 69.2443 119.694 68.9845 120.099 68.8076C120.508 68.627 120.96 68.5368 121.454 68.5368C121.951 68.5368 122.404 68.627 122.814 68.8076C123.223 68.9845 123.575 69.2443 123.869 69.587C124.164 69.9261 124.391 70.337 124.549 70.8197C124.711 71.2988 124.792 71.8424 124.792 72.4504ZM123.405 72.8927V72.4394C123.405 71.9898 123.361 71.5936 123.272 71.2509C123.188 70.9045 123.06 70.6152 122.891 70.383C122.725 70.1472 122.521 69.9703 122.277 69.8524C122.034 69.7308 121.76 69.67 121.454 69.67C121.148 69.67 120.875 69.7308 120.636 69.8524C120.396 69.9703 120.191 70.1472 120.022 70.383C119.856 70.6152 119.729 70.9045 119.641 71.2509C119.552 71.5936 119.508 71.9898 119.508 72.4394V72.8927C119.508 73.3423 119.552 73.7403 119.641 74.0867C119.729 74.4331 119.858 74.7261 120.028 74.9656C120.201 75.2015 120.407 75.3802 120.647 75.5018C120.886 75.6197 121.159 75.6787 121.465 75.6787C121.774 75.6787 122.049 75.6197 122.288 75.5018C122.528 75.3802 122.731 75.2015 122.896 74.9656C123.062 74.7261 123.188 74.4331 123.272 74.0867C123.361 73.7403 123.405 73.3423 123.405 72.8927ZM120.79 68.1443L121.868 66.4804H123.372L121.868 68.1443H120.79ZM132.919 75.5958V76.6958H128.879V75.5958H132.919ZM129.266 68.6473V76.6958H127.878V68.6473H129.266ZM137.171 68.6473V76.6958H135.784V68.6473H137.171ZM145.348 74.0756H146.73C146.686 74.6026 146.538 75.0725 146.288 75.4852C146.037 75.8943 145.685 76.2167 145.232 76.4526C144.779 76.6884 144.228 76.8064 143.579 76.8064C143.082 76.8064 142.634 76.7179 142.236 76.541C141.838 76.3604 141.497 76.1062 141.213 75.7782C140.93 75.4465 140.712 75.0467 140.561 74.5787C140.414 74.1106 140.34 73.5873 140.34 73.0088V72.3399C140.34 71.7613 140.416 71.238 140.567 70.77C140.721 70.302 140.943 69.9021 141.23 69.5705C141.517 69.2351 141.862 68.979 142.264 68.8021C142.669 68.6252 143.124 68.5368 143.629 68.5368C144.27 68.5368 144.812 68.6547 145.254 68.8905C145.696 69.1264 146.039 69.4525 146.282 69.869C146.529 70.2854 146.68 70.7626 146.736 71.3007H145.354C145.317 70.9543 145.236 70.6576 145.11 70.4107C144.989 70.1638 144.808 69.9758 144.569 69.8469C144.329 69.7142 144.016 69.6478 143.629 69.6478C143.312 69.6478 143.036 69.7068 142.8 69.8247C142.564 69.9427 142.367 70.1159 142.208 70.3444C142.05 70.5728 141.93 70.8548 141.849 71.1901C141.772 71.5218 141.733 71.9014 141.733 72.3288V73.0088C141.733 73.4141 141.768 73.7826 141.838 74.1143C141.912 74.4423 142.022 74.7242 142.17 74.9601C142.321 75.1959 142.512 75.3783 142.745 75.5073C142.977 75.6363 143.255 75.7008 143.579 75.7008C143.974 75.7008 144.292 75.6381 144.536 75.5129C144.782 75.3876 144.969 75.2051 145.094 74.9656C145.223 74.7224 145.308 74.4257 145.348 74.0756ZM156.106 72.4504V72.8927C156.106 73.5007 156.027 74.0461 155.869 74.5289C155.71 75.0117 155.484 75.4226 155.189 75.7616C154.898 76.1006 154.548 76.3604 154.138 76.541C153.729 76.7179 153.276 76.8064 152.779 76.8064C152.285 76.8064 151.833 76.7179 151.424 76.541C151.019 76.3604 150.667 76.1006 150.369 75.7616C150.07 75.4226 149.838 75.0117 149.672 74.5289C149.51 74.0461 149.429 73.5007 149.429 72.8927V72.4504C149.429 71.8424 149.51 71.2988 149.672 70.8197C149.834 70.337 150.063 69.9261 150.357 69.587C150.656 69.2443 151.008 68.9845 151.413 68.8076C151.822 68.627 152.274 68.5368 152.768 68.5368C153.265 68.5368 153.718 68.627 154.127 68.8076C154.536 68.9845 154.888 69.2443 155.183 69.587C155.478 69.9261 155.705 70.337 155.863 70.8197C156.025 71.2988 156.106 71.8424 156.106 72.4504ZM154.719 72.8927V72.4394C154.719 71.9898 154.675 71.5936 154.586 71.2509C154.501 70.9045 154.374 70.6152 154.205 70.383C154.039 70.1472 153.834 69.9703 153.591 69.8524C153.348 69.7308 153.073 69.67 152.768 69.67C152.462 69.67 152.189 69.7308 151.949 69.8524C151.71 69.9703 151.505 70.1472 151.336 70.383C151.17 70.6152 151.043 70.9045 150.954 71.2509C150.866 71.5936 150.822 71.9898 150.822 72.4394V72.8927C150.822 73.3423 150.866 73.7403 150.954 74.0867C151.043 74.4331 151.172 74.7261 151.341 74.9656C151.515 75.2015 151.721 75.3802 151.961 75.5018C152.2 75.6197 152.473 75.6787 152.779 75.6787C153.088 75.6787 153.363 75.6197 153.602 75.5018C153.842 75.3802 154.045 75.2015 154.21 74.9656C154.376 74.7261 154.501 74.4331 154.586 74.0867C154.675 73.7403 154.719 73.3423 154.719 72.8927ZM163.426 74.6229C163.426 74.457 163.401 74.3096 163.349 74.1806C163.301 74.0517 163.214 73.9337 163.089 73.8269C162.964 73.72 162.787 73.6168 162.558 73.5173C162.334 73.4141 162.046 73.3091 161.696 73.2022C161.313 73.0843 160.959 72.9535 160.635 72.8098C160.314 72.6623 160.034 72.4928 159.795 72.3012C159.555 72.1059 159.369 71.8829 159.236 71.6323C159.104 71.3781 159.037 71.0851 159.037 70.7534C159.037 70.4254 159.105 70.1269 159.242 69.8579C159.382 69.5889 159.579 69.3567 159.833 69.1614C160.091 68.9624 160.395 68.8095 160.745 68.7026C161.095 68.592 161.482 68.5368 161.906 68.5368C162.503 68.5368 163.017 68.6473 163.448 68.8684C163.883 69.0895 164.217 69.3862 164.449 69.7584C164.685 70.1306 164.803 70.5415 164.803 70.9911H163.426C163.426 70.7258 163.369 70.4918 163.255 70.2891C163.144 70.0827 162.975 69.9206 162.746 69.8026C162.522 69.6847 162.236 69.6257 161.89 69.6257C161.562 69.6257 161.289 69.6755 161.071 69.775C160.854 69.8745 160.692 70.009 160.585 70.1785C160.478 70.348 160.425 70.5397 160.425 70.7534C160.425 70.9045 160.46 71.0427 160.53 71.168C160.6 71.2896 160.707 71.4038 160.85 71.5107C160.994 71.6139 161.175 71.7116 161.392 71.8037C161.609 71.8958 161.866 71.9843 162.16 72.069C162.606 72.2017 162.995 72.3491 163.327 72.5113C163.658 72.6697 163.935 72.8503 164.156 73.053C164.377 73.2557 164.543 73.486 164.653 73.744C164.764 73.9982 164.819 74.2875 164.819 74.6118C164.819 74.9509 164.751 75.2567 164.615 75.5294C164.478 75.7985 164.283 76.0288 164.029 76.2204C163.778 76.4084 163.476 76.5539 163.122 76.6571C162.772 76.7566 162.382 76.8064 161.95 76.8064C161.563 76.8064 161.182 76.7548 160.806 76.6516C160.434 76.5484 160.095 76.3918 159.789 76.1817C159.483 75.968 159.24 75.7026 159.059 75.3857C158.879 75.0651 158.788 74.6911 158.788 74.2636H160.176C160.176 74.5252 160.22 74.7482 160.309 74.9324C160.401 75.1167 160.528 75.2678 160.69 75.3857C160.852 75.5 161.04 75.5847 161.254 75.64C161.471 75.6953 161.703 75.7229 161.95 75.7229C162.275 75.7229 162.546 75.6768 162.763 75.5847C162.984 75.4926 163.15 75.3636 163.26 75.1978C163.371 75.0319 163.426 74.8403 163.426 74.6229ZM177.53 75.5958V76.6958H173.257V75.5958H177.53ZM173.649 68.6473V76.6958H172.262V68.6473H173.649ZM176.972 72.0082V73.0917H173.257V72.0082H176.972ZM177.502 68.6473V69.7529H173.257V68.6473H177.502ZM180.925 68.6473H182.163L184.491 74.855L186.812 68.6473H188.05L184.977 76.6958H183.993L180.925 68.6473ZM180.361 68.6473H181.539L181.743 74.0203V76.6958H180.361V68.6473ZM187.437 68.6473H188.62V76.6958H187.232V74.0203L187.437 68.6473ZM199.528 68.6473V76.6958H198.152V68.6473H199.528ZM202.055 68.6473V69.7529H195.648V68.6473H202.055ZM210.082 75.5958V76.6958H205.809V75.5958H210.082ZM206.202 68.6473V76.6958H204.814V68.6473H206.202ZM209.524 72.0082V73.0917H205.809V72.0082H209.524ZM210.054 68.6473V69.7529H205.809V68.6473H210.054ZM213.477 68.6473H214.715L217.043 74.855L219.364 68.6473H220.603L217.529 76.6958H216.545L213.477 68.6473ZM212.913 68.6473H214.091L214.295 74.0203V76.6958H212.913V68.6473ZM219.989 68.6473H221.172V76.6958H219.784V74.0203L219.989 68.6473ZM227.574 73.6942H225.479V72.5942H227.574C227.939 72.5942 228.234 72.5352 228.459 72.4173C228.684 72.2994 228.847 72.1372 228.951 71.9308C229.058 71.7208 229.111 71.4812 229.111 71.2122C229.111 70.9579 229.058 70.7202 228.951 70.4991C228.847 70.2743 228.684 70.0938 228.459 69.9574C228.234 69.8211 227.939 69.7529 227.574 69.7529H225.905V76.6958H224.517V68.6473H227.574C228.197 68.6473 228.726 68.7579 229.161 68.979C229.599 69.1964 229.933 69.4986 230.161 69.8855C230.39 70.2688 230.504 70.7073 230.504 71.2012C230.504 71.7208 230.39 72.1667 230.161 72.5389C229.933 72.9111 229.599 73.1967 229.161 73.3957C228.726 73.5947 228.197 73.6942 227.574 73.6942ZM239.864 72.4504V72.8927C239.864 73.5007 239.784 74.0461 239.626 74.5289C239.468 75.0117 239.241 75.4226 238.946 75.7616C238.655 76.1006 238.305 76.3604 237.896 76.541C237.487 76.7179 237.033 76.8064 236.536 76.8064C236.042 76.8064 235.591 76.7179 235.182 76.541C234.776 76.3604 234.424 76.1006 234.126 75.7616C233.827 75.4226 233.595 75.0117 233.429 74.5289C233.267 74.0461 233.186 73.5007 233.186 72.8927V72.4504C233.186 71.8424 233.267 71.2988 233.429 70.8197C233.591 70.337 233.82 69.9261 234.115 69.587C234.413 69.2443 234.765 68.9845 235.171 68.8076C235.58 68.627 236.031 68.5368 236.525 68.5368C237.022 68.5368 237.476 68.627 237.885 68.8076C238.294 68.9845 238.646 69.2443 238.941 69.587C239.235 69.9261 239.462 70.337 239.62 70.8197C239.783 71.2988 239.864 71.8424 239.864 72.4504ZM238.476 72.8927V72.4394C238.476 71.9898 238.432 71.5936 238.344 71.2509C238.259 70.9045 238.132 70.6152 237.962 70.383C237.796 70.1472 237.592 69.9703 237.349 69.8524C237.105 69.7308 236.831 69.67 236.525 69.67C236.219 69.67 235.946 69.7308 235.707 69.8524C235.467 69.9703 235.263 70.1472 235.093 70.383C234.927 70.6152 234.8 70.9045 234.712 71.2509C234.623 71.5936 234.579 71.9898 234.579 72.4394V72.8927C234.579 73.3423 234.623 73.7403 234.712 74.0867C234.8 74.4331 234.929 74.7261 235.099 74.9656C235.272 75.2015 235.478 75.3802 235.718 75.5018C235.957 75.6197 236.23 75.6787 236.536 75.6787C236.845 75.6787 237.12 75.6197 237.36 75.5018C237.599 75.3802 237.802 75.2015 237.968 74.9656C238.133 74.7261 238.259 74.4331 238.344 74.0867C238.432 73.7403 238.476 73.3423 238.476 72.8927ZM247.184 74.6229C247.184 74.457 247.158 74.3096 247.106 74.1806C247.058 74.0517 246.972 73.9337 246.846 73.8269C246.721 73.72 246.544 73.6168 246.316 73.5173C246.091 73.4141 245.803 73.3091 245.453 73.2022C245.07 73.0843 244.716 72.9535 244.392 72.8098C244.071 72.6623 243.791 72.4928 243.552 72.3012C243.312 72.1059 243.126 71.8829 242.994 71.6323C242.861 71.3781 242.795 71.0851 242.795 70.7534C242.795 70.4254 242.863 70.1269 242.999 69.8579C243.139 69.5889 243.336 69.3567 243.591 69.1614C243.848 68.9624 244.153 68.8095 244.503 68.7026C244.853 68.592 245.24 68.5368 245.663 68.5368C246.26 68.5368 246.775 68.6473 247.206 68.8684C247.641 69.0895 247.974 69.3862 248.206 69.7584C248.442 70.1306 248.56 70.5415 248.56 70.9911H247.184C247.184 70.7258 247.126 70.4918 247.012 70.2891C246.902 70.0827 246.732 69.9206 246.504 69.8026C246.279 69.6847 245.993 69.6257 245.647 69.6257C245.319 69.6257 245.046 69.6755 244.829 69.775C244.611 69.8745 244.449 70.009 244.342 70.1785C244.235 70.348 244.182 70.5397 244.182 70.7534C244.182 70.9045 244.217 71.0427 244.287 71.168C244.357 71.2896 244.464 71.4038 244.608 71.5107C244.751 71.6139 244.932 71.7116 245.149 71.8037C245.367 71.8958 245.623 71.9843 245.918 72.069C246.364 72.2017 246.752 72.3491 247.084 72.5113C247.416 72.6697 247.692 72.8503 247.913 73.053C248.134 73.2557 248.3 73.486 248.411 73.744C248.521 73.9982 248.577 74.2875 248.577 74.6118C248.577 74.9509 248.508 75.2567 248.372 75.5294C248.236 75.7985 248.04 76.0288 247.786 76.2204C247.536 76.4084 247.233 76.5539 246.88 76.6571C246.529 76.7566 246.139 76.8064 245.708 76.8064C245.321 76.8064 244.939 76.7548 244.563 76.6516C244.191 76.5484 243.852 76.3918 243.546 76.1817C243.24 75.968 242.997 75.7026 242.817 75.3857C242.636 75.0651 242.546 74.6911 242.546 74.2636H243.933C243.933 74.5252 243.977 74.7482 244.066 74.9324C244.158 75.1167 244.285 75.2678 244.447 75.3857C244.609 75.5 244.797 75.5847 245.011 75.64C245.229 75.6953 245.461 75.7229 245.708 75.7229C246.032 75.7229 246.303 75.6768 246.52 75.5847C246.741 75.4926 246.907 75.3636 247.018 75.1978C247.128 75.0319 247.184 74.8403 247.184 74.6229ZM258.357 76.6958H256.638L256.649 75.5958H258.357C258.855 75.5958 259.271 75.4871 259.607 75.2696C259.946 75.0522 260.2 74.7408 260.37 74.3354C260.543 73.9301 260.629 73.4473 260.629 72.8871V72.4504C260.629 72.0156 260.58 71.6305 260.48 71.2951C260.384 70.9598 260.241 70.6779 260.049 70.4494C259.861 70.2209 259.629 70.0477 259.352 69.9298C259.08 69.8118 258.765 69.7529 258.407 69.7529H256.605V68.6473H258.407C258.942 68.6473 259.43 68.7376 259.872 68.9182C260.314 69.0951 260.696 69.3512 261.016 69.6865C261.341 70.0219 261.589 70.4236 261.763 70.8916C261.936 71.3596 262.022 71.8829 262.022 72.4615V72.8871C262.022 73.4657 261.936 73.989 261.763 74.457C261.589 74.9251 261.341 75.3267 261.016 75.6621C260.692 75.9938 260.305 76.2499 259.856 76.4305C259.41 76.6074 258.91 76.6958 258.357 76.6958ZM257.407 68.6473V76.6958H256.019V68.6473H257.407ZM270.382 75.5958V76.6958H266.109V75.5958H270.382ZM266.501 68.6473V76.6958H265.114V68.6473H266.501ZM269.823 72.0082V73.0917H266.109V72.0082H269.823ZM270.354 68.6473V69.7529H266.109V68.6473H270.354ZM282.484 74.0756H283.866C283.822 74.6026 283.674 75.0725 283.424 75.4852C283.173 75.8943 282.821 76.2167 282.368 76.4526C281.915 76.6884 281.364 76.8064 280.715 76.8064C280.218 76.8064 279.77 76.7179 279.372 76.541C278.974 76.3604 278.633 76.1062 278.349 75.7782C278.066 75.4465 277.848 75.0467 277.697 74.5787C277.55 74.1106 277.476 73.5873 277.476 73.0088V72.3399C277.476 71.7613 277.551 71.238 277.703 70.77C277.857 70.302 278.078 69.9021 278.366 69.5705C278.653 69.2351 278.998 68.979 279.4 68.8021C279.805 68.6252 280.26 68.5368 280.765 68.5368C281.406 68.5368 281.948 68.6547 282.39 68.8905C282.832 69.1264 283.175 69.4525 283.418 69.869C283.665 70.2854 283.816 70.7626 283.872 71.3007H282.49C282.453 70.9543 282.372 70.6576 282.246 70.4107C282.125 70.1638 281.944 69.9758 281.705 69.8469C281.465 69.7142 281.152 69.6478 280.765 69.6478C280.448 69.6478 280.172 69.7068 279.936 69.8247C279.7 69.9427 279.503 70.1159 279.344 70.3444C279.186 70.5728 279.066 70.8548 278.985 71.1901C278.908 71.5218 278.869 71.9014 278.869 72.3288V73.0088C278.869 73.4141 278.904 73.7826 278.974 74.1143C279.048 74.4423 279.158 74.7242 279.306 74.9601C279.457 75.1959 279.648 75.3783 279.881 75.5073C280.113 75.6363 280.391 75.7008 280.715 75.7008C281.11 75.7008 281.428 75.6381 281.672 75.5129C281.918 75.3876 282.105 75.2051 282.23 74.9656C282.359 74.7224 282.444 74.4257 282.484 74.0756ZM293.242 72.4504V72.8927C293.242 73.5007 293.163 74.0461 293.005 74.5289C292.846 75.0117 292.62 75.4226 292.325 75.7616C292.034 76.1006 291.684 76.3604 291.274 76.541C290.865 76.7179 290.412 76.8064 289.915 76.8064C289.421 76.8064 288.969 76.7179 288.56 76.541C288.155 76.3604 287.803 76.1006 287.505 75.7616C287.206 75.4226 286.974 75.0117 286.808 74.5289C286.646 74.0461 286.565 73.5007 286.565 72.8927V72.4504C286.565 71.8424 286.646 71.2988 286.808 70.8197C286.97 70.337 287.199 69.9261 287.493 69.587C287.792 69.2443 288.144 68.9845 288.549 68.8076C288.958 68.627 289.41 68.5368 289.904 68.5368C290.401 68.5368 290.854 68.627 291.263 68.8076C291.672 68.9845 292.024 69.2443 292.319 69.587C292.614 69.9261 292.841 70.337 292.999 70.8197C293.161 71.2988 293.242 71.8424 293.242 72.4504ZM291.855 72.8927V72.4394C291.855 71.9898 291.811 71.5936 291.722 71.2509C291.637 70.9045 291.51 70.6152 291.341 70.383C291.175 70.1472 290.97 69.9703 290.727 69.8524C290.484 69.7308 290.209 69.67 289.904 69.67C289.598 69.67 289.325 69.7308 289.085 69.8524C288.846 69.9703 288.641 70.1472 288.472 70.383C288.306 70.6152 288.179 70.9045 288.09 71.2509C288.002 71.5936 287.958 71.9898 287.958 72.4394V72.8927C287.958 73.3423 288.002 73.7403 288.09 74.0867C288.179 74.4331 288.308 74.7261 288.477 74.9656C288.651 75.2015 288.857 75.3802 289.097 75.5018C289.336 75.6197 289.609 75.6787 289.915 75.6787C290.224 75.6787 290.499 75.6197 290.738 75.5018C290.978 75.3802 291.18 75.2015 291.346 74.9656C291.512 74.7261 291.637 74.4331 291.722 74.0867C291.811 73.7403 291.855 73.3423 291.855 72.8927ZM302.713 68.6473V76.6958H301.325L297.715 70.9303V76.6958H296.328V68.6473H297.715L301.336 74.4239V68.6473H302.713ZM307.451 68.6473V76.6958H306.064V68.6473H307.451ZM310.735 72.1685V73.2686H307.097V72.1685H310.735ZM311.193 68.6473V69.7529H307.097V68.6473H311.193ZM318.513 68.6473H319.895V74.0259C319.895 74.6376 319.763 75.1499 319.497 75.5626C319.232 75.9753 318.871 76.2867 318.414 76.4968C317.961 76.7032 317.454 76.8064 316.894 76.8064C316.315 76.8064 315.799 76.7032 315.346 76.4968C314.893 76.2867 314.535 75.9753 314.273 75.5626C314.015 75.1499 313.887 74.6376 313.887 74.0259V68.6473H315.268V74.0259C315.268 74.4128 315.335 74.7316 315.467 74.9822C315.6 75.2291 315.788 75.4115 316.031 75.5294C316.275 75.6474 316.562 75.7063 316.894 75.7063C317.225 75.7063 317.511 75.6474 317.75 75.5294C317.994 75.4115 318.182 75.2291 318.314 74.9822C318.447 74.7316 318.513 74.4128 318.513 74.0259V68.6473ZM327.337 74.6229C327.337 74.457 327.311 74.3096 327.259 74.1806C327.211 74.0517 327.125 73.9337 327 73.8269C326.874 73.72 326.697 73.6168 326.469 73.5173C326.244 73.4141 325.957 73.3091 325.607 73.2022C325.223 73.0843 324.87 72.9535 324.545 72.8098C324.225 72.6623 323.945 72.4928 323.705 72.3012C323.465 72.1059 323.279 71.8829 323.147 71.6323C323.014 71.3781 322.948 71.0851 322.948 70.7534C322.948 70.4254 323.016 70.1269 323.152 69.8579C323.292 69.5889 323.489 69.3567 323.744 69.1614C324.002 68.9624 324.306 68.8095 324.656 68.7026C325.006 68.592 325.393 68.5368 325.817 68.5368C326.414 68.5368 326.928 68.6473 327.359 68.8684C327.794 69.0895 328.127 69.3862 328.359 69.7584C328.595 70.1306 328.713 70.5415 328.713 70.9911H327.337C327.337 70.7258 327.28 70.4918 327.165 70.2891C327.055 70.0827 326.885 69.9206 326.657 69.8026C326.432 69.6847 326.146 69.6257 325.8 69.6257C325.472 69.6257 325.199 69.6755 324.982 69.775C324.765 69.8745 324.602 70.009 324.495 70.1785C324.389 70.348 324.335 70.5397 324.335 70.7534C324.335 70.9045 324.37 71.0427 324.44 71.168C324.51 71.2896 324.617 71.4038 324.761 71.5107C324.905 71.6139 325.085 71.7116 325.303 71.8037C325.52 71.8958 325.776 71.9843 326.071 72.069C326.517 72.2017 326.906 72.3491 327.237 72.5113C327.569 72.6697 327.845 72.8503 328.066 73.053C328.288 73.2557 328.453 73.486 328.564 73.744C328.675 73.9982 328.73 74.2875 328.73 74.6118C328.73 74.9509 328.662 75.2567 328.525 75.5294C328.389 75.7985 328.194 76.0288 327.939 76.2204C327.689 76.4084 327.387 76.5539 327.033 76.6571C326.683 76.7566 326.292 76.8064 325.861 76.8064C325.474 76.8064 325.092 76.7548 324.717 76.6516C324.344 76.5484 324.005 76.3918 323.699 76.1817C323.394 75.968 323.15 75.7026 322.97 75.3857C322.789 75.0651 322.699 74.6911 322.699 74.2636H324.086C324.086 74.5252 324.131 74.7482 324.219 74.9324C324.311 75.1167 324.438 75.2678 324.601 75.3857C324.763 75.5 324.951 75.5847 325.164 75.64C325.382 75.6953 325.614 75.7229 325.861 75.7229C326.185 75.7229 326.456 75.6768 326.673 75.5847C326.895 75.4926 327.06 75.3636 327.171 75.1978C327.281 75.0319 327.337 74.8403 327.337 74.6229ZM334.789 69.7197L332.385 76.6958H330.931L333.96 68.6473H334.889L334.789 69.7197ZM336.801 76.6958L334.391 69.7197L334.286 68.6473H335.221L338.261 76.6958H336.801ZM336.685 73.7108V74.8108H332.307V73.7108H336.685ZM335.818 66.5578L336.63 66.6186C336.63 66.8876 336.577 67.129 336.47 67.3428C336.363 67.5528 336.217 67.7186 336.033 67.8403C335.849 67.9619 335.641 68.0227 335.408 68.0227C335.228 68.0227 335.075 67.9969 334.95 67.9453C334.824 67.8937 334.71 67.8347 334.607 67.7684C334.504 67.7021 334.397 67.6449 334.286 67.597C334.179 67.5454 334.052 67.5196 333.905 67.5196C333.765 67.5196 333.645 67.5712 333.546 67.6744C333.45 67.7776 333.402 67.9158 333.402 68.089L332.584 68.0448C332.584 67.7795 332.637 67.5399 332.744 67.3262C332.851 67.1124 332.997 66.9429 333.181 66.8176C333.365 66.6923 333.573 66.6297 333.805 66.6297C333.956 66.6297 334.093 66.6555 334.214 66.7071C334.34 66.755 334.458 66.8121 334.568 66.8784C334.682 66.9448 334.799 67.0037 334.916 67.0553C335.034 67.1069 335.165 67.1327 335.309 67.1327C335.449 67.1327 335.569 67.0793 335.668 66.9724C335.768 66.8655 335.818 66.7273 335.818 66.5578ZM347.189 72.4504V72.8927C347.189 73.5007 347.11 74.0461 346.952 74.5289C346.793 75.0117 346.567 75.4226 346.272 75.7616C345.981 76.1006 345.63 76.3604 345.221 76.541C344.812 76.7179 344.359 76.8064 343.862 76.8064C343.368 76.8064 342.916 76.7179 342.507 76.541C342.102 76.3604 341.75 76.1006 341.451 75.7616C341.153 75.4226 340.921 75.0117 340.755 74.5289C340.593 74.0461 340.512 73.5007 340.512 72.8927V72.4504C340.512 71.8424 340.593 71.2988 340.755 70.8197C340.917 70.337 341.146 69.9261 341.44 69.587C341.739 69.2443 342.091 68.9845 342.496 68.8076C342.905 68.627 343.357 68.5368 343.851 68.5368C344.348 68.5368 344.801 68.627 345.21 68.8076C345.619 68.9845 345.971 69.2443 346.266 69.587C346.561 69.9261 346.788 70.337 346.946 70.8197C347.108 71.2988 347.189 71.8424 347.189 72.4504ZM345.802 72.8927V72.4394C345.802 71.9898 345.758 71.5936 345.669 71.2509C345.584 70.9045 345.457 70.6152 345.288 70.383C345.122 70.1472 344.917 69.9703 344.674 69.8524C344.431 69.7308 344.156 69.67 343.851 69.67C343.545 69.67 343.272 69.7308 343.032 69.8524C342.793 69.9703 342.588 70.1472 342.419 70.383C342.253 70.6152 342.126 70.9045 342.037 71.2509C341.949 71.5936 341.905 71.9898 341.905 72.4394V72.8927C341.905 73.3423 341.949 73.7403 342.037 74.0867C342.126 74.4331 342.255 74.7261 342.424 74.9656C342.598 75.2015 342.804 75.3802 343.043 75.5018C343.283 75.6197 343.556 75.6787 343.862 75.6787C344.171 75.6787 344.446 75.6197 344.685 75.5018C344.925 75.3802 345.127 75.2015 345.293 74.9656C345.459 74.7261 345.584 74.4331 345.669 74.0867C345.758 73.7403 345.802 73.3423 345.802 72.8927Z" fill="url(#paint0_linear_22_17)"/>
<path d="M21.4192 72.5831V75.6566C21.305 75.8077 21.1262 75.9735 20.883 76.1541C20.6435 76.331 20.3247 76.4839 19.9267 76.6129C19.5287 76.7419 19.033 76.8064 18.4397 76.8064C17.9348 76.8064 17.4724 76.7216 17.0522 76.5521C16.6321 76.3789 16.2691 76.1264 15.9633 75.7948C15.6611 75.4631 15.4271 75.0596 15.2612 74.5842C15.0954 74.1051 15.0125 73.5597 15.0125 72.9479V72.3896C15.0125 71.7816 15.088 71.2399 15.2391 70.7645C15.3939 70.2854 15.615 69.88 15.9025 69.5483C16.1899 69.2167 16.5363 68.9661 16.9417 68.7966C17.3507 68.6234 17.8132 68.5368 18.3292 68.5368C18.9888 68.5368 19.5342 68.6473 19.9654 68.8684C20.4002 69.0859 20.7356 69.388 20.9715 69.775C21.2073 70.1619 21.3566 70.6042 21.4192 71.1017H20.0594C20.0151 70.8216 19.9285 70.571 19.7996 70.3499C19.6743 70.1288 19.4937 69.9556 19.2578 69.8303C19.0257 69.7013 18.7235 69.6368 18.3513 69.6368C18.0307 69.6368 17.7487 69.6976 17.5055 69.8192C17.2623 69.9408 17.0596 70.1196 16.8975 70.3554C16.739 70.5913 16.6192 70.8787 16.5382 71.2177C16.4571 71.5568 16.4165 71.9437 16.4165 72.3786V72.9479C16.4165 73.3902 16.4626 73.7826 16.5547 74.1254C16.6506 74.4681 16.7869 74.7574 16.9638 74.9932C17.1444 75.2291 17.3636 75.4078 17.6216 75.5294C17.8796 75.6474 18.1707 75.7063 18.495 75.7063C18.8119 75.7063 19.0717 75.6805 19.2744 75.6289C19.4771 75.5737 19.6374 75.5092 19.7553 75.4355C19.8769 75.3581 19.9709 75.2844 20.0373 75.2143V73.6168H18.3623V72.5831H21.4192ZM29.1703 68.6473H30.5522V74.0259C30.5522 74.6376 30.4196 75.1499 30.1542 75.5626C29.8889 75.9753 29.5278 76.2867 29.0708 76.4968C28.6175 76.7032 28.1108 76.8064 27.5506 76.8064C26.9721 76.8064 26.4561 76.7032 26.0029 76.4968C25.5496 76.2867 25.1921 75.9753 24.9305 75.5626C24.6725 75.1499 24.5435 74.6376 24.5435 74.0259V68.6473H25.9255V74.0259C25.9255 74.4128 25.9918 74.7316 26.1245 74.9822C26.2571 75.2291 26.4451 75.4115 26.6883 75.5294C26.9315 75.6474 27.219 75.7063 27.5506 75.7063C27.8823 75.7063 28.1679 75.6474 28.4075 75.5294C28.6507 75.4115 28.8386 75.2291 28.9713 74.9822C29.104 74.7316 29.1703 74.4128 29.1703 74.0259V68.6473ZM35.2409 68.6473V76.6958H33.8534V68.6473H35.2409ZM41.8975 69.7197L39.4929 76.6958H38.0391L41.0683 68.6473H41.997L41.8975 69.7197ZM43.9096 76.6958L41.4995 69.7197L41.3945 68.6473H42.3287L45.369 76.6958H43.9096ZM43.7935 73.7108V74.8108H39.4155V73.7108H43.7935ZM55.5423 73.6942H53.4473V72.5942H55.5423C55.9072 72.5942 56.202 72.5352 56.4268 72.4173C56.6516 72.2994 56.8156 72.1372 56.9188 71.9308C57.0256 71.7208 57.0791 71.4812 57.0791 71.2122C57.0791 70.9579 57.0256 70.7202 56.9188 70.4991C56.8156 70.2743 56.6516 70.0938 56.4268 69.9574C56.202 69.8211 55.9072 69.7529 55.5423 69.7529H53.8729V76.6958H52.4855V68.6473H55.5423C56.1651 68.6473 56.694 68.7579 57.1288 68.979C57.5674 69.1964 57.9009 69.4986 58.1294 69.8855C58.3578 70.2688 58.4721 70.7073 58.4721 71.2012C58.4721 71.7208 58.3578 72.1667 58.1294 72.5389C57.9009 72.9111 57.5674 73.1967 57.1288 73.3957C56.694 73.5947 56.1651 73.6942 55.5423 73.6942ZM63.708 69.7197L61.3034 76.6958H59.8496L62.8788 68.6473H63.8075L63.708 69.7197ZM65.7201 76.6958L63.31 69.7197L63.205 68.6473H64.1392L67.1795 76.6958H65.7201ZM65.6041 73.7108V74.8108H61.226V73.7108H65.6041ZM69.7787 68.6473H72.6255C73.2372 68.6473 73.7587 68.7394 74.1898 68.9237C74.621 69.108 74.9508 69.3807 75.1793 69.7418C75.4115 70.0993 75.5276 70.5415 75.5276 71.0685C75.5276 71.4702 75.4539 71.824 75.3065 72.1298C75.159 72.4357 74.9508 72.6937 74.6818 72.9037C74.4128 73.1101 74.0922 73.2704 73.72 73.3846L73.2999 73.5892H70.7405L70.7294 72.4891H72.6476C72.9793 72.4891 73.2556 72.4302 73.4768 72.3123C73.6979 72.1943 73.8637 72.034 73.9743 71.8313C74.0885 71.625 74.1456 71.3928 74.1456 71.1348C74.1456 70.8548 74.0903 70.6115 73.9798 70.4052C73.8729 70.1951 73.7071 70.0348 73.4823 69.9242C73.2575 69.81 72.9719 69.7529 72.6255 69.7529H71.1661V76.6958H69.7787V68.6473ZM74.3723 76.6958L72.4817 73.0806L73.9356 73.0751L75.8537 76.6239V76.6958H74.3723ZM81.7419 69.7197L79.3373 76.6958H77.8835L80.9128 68.6473H81.8414L81.7419 69.7197ZM83.754 76.6958L81.3439 69.7197L81.2389 68.6473H82.1731L85.2134 76.6958H83.754ZM83.638 73.7108V74.8108H79.2599V73.7108H83.638ZM97.0838 74.0756H98.4657C98.4215 74.6026 98.2741 75.0725 98.0235 75.4852C97.7729 75.8943 97.421 76.2167 96.9677 76.4526C96.5144 76.6884 95.9635 76.8064 95.3149 76.8064C94.8174 76.8064 94.3696 76.7179 93.9716 76.541C93.5736 76.3604 93.2328 76.1062 92.949 75.7782C92.6652 75.4465 92.4478 75.0467 92.2967 74.5787C92.1493 74.1106 92.0756 73.5873 92.0756 73.0088V72.3399C92.0756 71.7613 92.1511 71.238 92.3022 70.77C92.457 70.302 92.6781 69.9021 92.9656 69.5705C93.253 69.2351 93.5976 68.979 93.9993 68.8021C94.4046 68.6252 94.8598 68.5368 95.3646 68.5368C96.0059 68.5368 96.5476 68.6547 96.9898 68.8905C97.432 69.1264 97.7748 69.4525 98.018 69.869C98.2649 70.2854 98.416 70.7626 98.4713 71.3007H97.0893C97.0525 70.9543 96.9714 70.6576 96.8461 70.4107C96.7245 70.1638 96.5439 69.9758 96.3044 69.8469C96.0648 69.7142 95.7516 69.6478 95.3646 69.6478C95.0477 69.6478 94.7713 69.7068 94.5355 69.8247C94.2996 69.9427 94.1025 70.1159 93.944 70.3444C93.7855 70.5728 93.6658 70.8548 93.5847 71.1901C93.5073 71.5218 93.4686 71.9014 93.4686 72.3288V73.0088C93.4686 73.4141 93.5036 73.7826 93.5736 74.1143C93.6473 74.4423 93.7579 74.7242 93.9053 74.9601C94.0564 75.1959 94.248 75.3783 94.4802 75.5073C94.7124 75.6363 94.9906 75.7008 95.3149 75.7008C95.7092 75.7008 96.028 75.6381 96.2712 75.5129C96.5181 75.3876 96.7042 75.2051 96.8295 74.9656C96.9585 74.7224 97.0433 74.4257 97.0838 74.0756ZM104.558 69.7197L102.154 76.6958H100.7L103.729 68.6473H104.658L104.558 69.7197ZM106.571 76.6958L104.16 69.7197L104.055 68.6473H104.99L108.03 76.6958H106.571ZM106.455 73.7108V74.8108H102.077V73.7108H106.455ZM113.244 68.6473V76.6958H111.867V68.6473H113.244ZM115.77 68.6473V69.7529H109.363V68.6473H115.77ZM124.792 72.4504V72.8927C124.792 73.5007 124.713 74.0461 124.555 74.5289C124.396 75.0117 124.17 75.4226 123.875 75.7616C123.584 76.1006 123.234 76.3604 122.825 76.541C122.416 76.7179 121.962 76.8064 121.465 76.8064C120.971 76.8064 120.519 76.7179 120.11 76.541C119.705 76.3604 119.353 76.1006 119.055 75.7616C118.756 75.4226 118.524 75.0117 118.358 74.5289C118.196 74.0461 118.115 73.5007 118.115 72.8927V72.4504C118.115 71.8424 118.196 71.2988 118.358 70.8197C118.52 70.337 118.749 69.9261 119.044 69.587C119.342 69.2443 119.694 68.9845 120.099 68.8076C120.508 68.627 120.96 68.5368 121.454 68.5368C121.951 68.5368 122.404 68.627 122.814 68.8076C123.223 68.9845 123.575 69.2443 123.869 69.587C124.164 69.9261 124.391 70.337 124.549 70.8197C124.711 71.2988 124.792 71.8424 124.792 72.4504ZM123.405 72.8927V72.4394C123.405 71.9898 123.361 71.5936 123.272 71.2509C123.188 70.9045 123.06 70.6152 122.891 70.383C122.725 70.1472 122.521 69.9703 122.277 69.8524C122.034 69.7308 121.76 69.67 121.454 69.67C121.148 69.67 120.875 69.7308 120.636 69.8524C120.396 69.9703 120.191 70.1472 120.022 70.383C119.856 70.6152 119.729 70.9045 119.641 71.2509C119.552 71.5936 119.508 71.9898 119.508 72.4394V72.8927C119.508 73.3423 119.552 73.7403 119.641 74.0867C119.729 74.4331 119.858 74.7261 120.028 74.9656C120.201 75.2015 120.407 75.3802 120.647 75.5018C120.886 75.6197 121.159 75.6787 121.465 75.6787C121.774 75.6787 122.049 75.6197 122.288 75.5018C122.528 75.3802 122.731 75.2015 122.896 74.9656C123.062 74.7261 123.188 74.4331 123.272 74.0867C123.361 73.7403 123.405 73.3423 123.405 72.8927ZM120.79 68.1443L121.868 66.4804H123.372L121.868 68.1443H120.79ZM132.919 75.5958V76.6958H128.879V75.5958H132.919ZM129.266 68.6473V76.6958H127.878V68.6473H129.266ZM137.171 68.6473V76.6958H135.784V68.6473H137.171ZM145.348 74.0756H146.73C146.686 74.6026 146.538 75.0725 146.288 75.4852C146.037 75.8943 145.685 76.2167 145.232 76.4526C144.779 76.6884 144.228 76.8064 143.579 76.8064C143.082 76.8064 142.634 76.7179 142.236 76.541C141.838 76.3604 141.497 76.1062 141.213 75.7782C140.93 75.4465 140.712 75.0467 140.561 74.5787C140.414 74.1106 140.34 73.5873 140.34 73.0088V72.3399C140.34 71.7613 140.416 71.238 140.567 70.77C140.721 70.302 140.943 69.9021 141.23 69.5705C141.517 69.2351 141.862 68.979 142.264 68.8021C142.669 68.6252 143.124 68.5368 143.629 68.5368C144.27 68.5368 144.812 68.6547 145.254 68.8905C145.696 69.1264 146.039 69.4525 146.282 69.869C146.529 70.2854 146.68 70.7626 146.736 71.3007H145.354C145.317 70.9543 145.236 70.6576 145.11 70.4107C144.989 70.1638 144.808 69.9758 144.569 69.8469C144.329 69.7142 144.016 69.6478 143.629 69.6478C143.312 69.6478 143.036 69.7068 142.8 69.8247C142.564 69.9427 142.367 70.1159 142.208 70.3444C142.05 70.5728 141.93 70.8548 141.849 71.1901C141.772 71.5218 141.733 71.9014 141.733 72.3288V73.0088C141.733 73.4141 141.768 73.7826 141.838 74.1143C141.912 74.4423 142.022 74.7242 142.17 74.9601C142.321 75.1959 142.512 75.3783 142.745 75.5073C142.977 75.6363 143.255 75.7008 143.579 75.7008C143.974 75.7008 144.292 75.6381 144.536 75.5129C144.782 75.3876 144.969 75.2051 145.094 74.9656C145.223 74.7224 145.308 74.4257 145.348 74.0756ZM156.106 72.4504V72.8927C156.106 73.5007 156.027 74.0461 155.869 74.5289C155.71 75.0117 155.484 75.4226 155.189 75.7616C154.898 76.1006 154.548 76.3604 154.138 76.541C153.729 76.7179 153.276 76.8064 152.779 76.8064C152.285 76.8064 151.833 76.7179 151.424 76.541C151.019 76.3604 150.667 76.1006 150.369 75.7616C150.07 75.4226 149.838 75.0117 149.672 74.5289C149.51 74.0461 149.429 73.5007 149.429 72.8927V72.4504C149.429 71.8424 149.51 71.2988 149.672 70.8197C149.834 70.337 150.063 69.9261 150.357 69.587C150.656 69.2443 151.008 68.9845 151.413 68.8076C151.822 68.627 152.274 68.5368 152.768 68.5368C153.265 68.5368 153.718 68.627 154.127 68.8076C154.536 68.9845 154.888 69.2443 155.183 69.587C155.478 69.9261 155.705 70.337 155.863 70.8197C156.025 71.2988 156.106 71.8424 156.106 72.4504ZM154.719 72.8927V72.4394C154.719 71.9898 154.675 71.5936 154.586 71.2509C154.501 70.9045 154.374 70.6152 154.205 70.383C154.039 70.1472 153.834 69.9703 153.591 69.8524C153.348 69.7308 153.073 69.67 152.768 69.67C152.462 69.67 152.189 69.7308 151.949 69.8524C151.71 69.9703 151.505 70.1472 151.336 70.383C151.17 70.6152 151.043 70.9045 150.954 71.2509C150.866 71.5936 150.822 71.9898 150.822 72.4394V72.8927C150.822 73.3423 150.866 73.7403 150.954 74.0867C151.043 74.4331 151.172 74.7261 151.341 74.9656C151.515 75.2015 151.721 75.3802 151.961 75.5018C152.2 75.6197 152.473 75.6787 152.779 75.6787C153.088 75.6787 153.363 75.6197 153.602 75.5018C153.842 75.3802 154.045 75.2015 154.21 74.9656C154.376 74.7261 154.501 74.4331 154.586 74.0867C154.675 73.7403 154.719 73.3423 154.719 72.8927ZM163.426 74.6229C163.426 74.457 163.401 74.3096 163.349 74.1806C163.301 74.0517 163.214 73.9337 163.089 73.8269C162.964 73.72 162.787 73.6168 162.558 73.5173C162.334 73.4141 162.046 73.3091 161.696 73.2022C161.313 73.0843 160.959 72.9535 160.635 72.8098C160.314 72.6623 160.034 72.4928 159.795 72.3012C159.555 72.1059 159.369 71.8829 159.236 71.6323C159.104 71.3781 159.037 71.0851 159.037 70.7534C159.037 70.4254 159.105 70.1269 159.242 69.8579C159.382 69.5889 159.579 69.3567 159.833 69.1614C160.091 68.9624 160.395 68.8095 160.745 68.7026C161.095 68.592 161.482 68.5368 161.906 68.5368C162.503 68.5368 163.017 68.6473 163.448 68.8684C163.883 69.0895 164.217 69.3862 164.449 69.7584C164.685 70.1306 164.803 70.5415 164.803 70.9911H163.426C163.426 70.7258 163.369 70.4918 163.255 70.2891C163.144 70.0827 162.975 69.9206 162.746 69.8026C162.522 69.6847 162.236 69.6257 161.89 69.6257C161.562 69.6257 161.289 69.6755 161.071 69.775C160.854 69.8745 160.692 70.009 160.585 70.1785C160.478 70.348 160.425 70.5397 160.425 70.7534C160.425 70.9045 160.46 71.0427 160.53 71.168C160.6 71.2896 160.707 71.4038 160.85 71.5107C160.994 71.6139 161.175 71.7116 161.392 71.8037C161.609 71.8958 161.866 71.9843 162.16 72.069C162.606 72.2017 162.995 72.3491 163.327 72.5113C163.658 72.6697 163.935 72.8503 164.156 73.053C164.377 73.2557 164.543 73.486 164.653 73.744C164.764 73.9982 164.819 74.2875 164.819 74.6118C164.819 74.9509 164.751 75.2567 164.615 75.5294C164.478 75.7985 164.283 76.0288 164.029 76.2204C163.778 76.4084 163.476 76.5539 163.122 76.6571C162.772 76.7566 162.382 76.8064 161.95 76.8064C161.563 76.8064 161.182 76.7548 160.806 76.6516C160.434 76.5484 160.095 76.3918 159.789 76.1817C159.483 75.968 159.24 75.7026 159.059 75.3857C158.879 75.0651 158.788 74.6911 158.788 74.2636H160.176C160.176 74.5252 160.22 74.7482 160.309 74.9324C160.401 75.1167 160.528 75.2678 160.69 75.3857C160.852 75.5 161.04 75.5847 161.254 75.64C161.471 75.6953 161.703 75.7229 161.95 75.7229C162.275 75.7229 162.546 75.6768 162.763 75.5847C162.984 75.4926 163.15 75.3636 163.26 75.1978C163.371 75.0319 163.426 74.8403 163.426 74.6229ZM177.53 75.5958V76.6958H173.257V75.5958H177.53ZM173.649 68.6473V76.6958H172.262V68.6473H173.649ZM176.972 72.0082V73.0917H173.257V72.0082H176.972ZM177.502 68.6473V69.7529H173.257V68.6473H177.502ZM180.925 68.6473H182.163L184.491 74.855L186.812 68.6473H188.05L184.977 76.6958H183.993L180.925 68.6473ZM180.361 68.6473H181.539L181.743 74.0203V76.6958H180.361V68.6473ZM187.437 68.6473H188.62V76.6958H187.232V74.0203L187.437 68.6473ZM199.528 68.6473V76.6958H198.152V68.6473H199.528ZM202.055 68.6473V69.7529H195.648V68.6473H202.055ZM210.082 75.5958V76.6958H205.809V75.5958H210.082ZM206.202 68.6473V76.6958H204.814V68.6473H206.202ZM209.524 72.0082V73.0917H205.809V72.0082H209.524ZM210.054 68.6473V69.7529H205.809V68.6473H210.054ZM213.477 68.6473H214.715L217.043 74.855L219.364 68.6473H220.603L217.529 76.6958H216.545L213.477 68.6473ZM212.913 68.6473H214.091L214.295 74.0203V76.6958H212.913V68.6473ZM219.989 68.6473H221.172V76.6958H219.784V74.0203L219.989 68.6473ZM227.574 73.6942H225.479V72.5942H227.574C227.939 72.5942 228.234 72.5352 228.459 72.4173C228.684 72.2994 228.847 72.1372 228.951 71.9308C229.058 71.7208 229.111 71.4812 229.111 71.2122C229.111 70.9579 229.058 70.7202 228.951 70.4991C228.847 70.2743 228.684 70.0938 228.459 69.9574C228.234 69.8211 227.939 69.7529 227.574 69.7529H225.905V76.6958H224.517V68.6473H227.574C228.197 68.6473 228.726 68.7579 229.161 68.979C229.599 69.1964 229.933 69.4986 230.161 69.8855C230.39 70.2688 230.504 70.7073 230.504 71.2012C230.504 71.7208 230.39 72.1667 230.161 72.5389C229.933 72.9111 229.599 73.1967 229.161 73.3957C228.726 73.5947 228.197 73.6942 227.574 73.6942ZM239.864 72.4504V72.8927C239.864 73.5007 239.784 74.0461 239.626 74.5289C239.468 75.0117 239.241 75.4226 238.946 75.7616C238.655 76.1006 238.305 76.3604 237.896 76.541C237.487 76.7179 237.033 76.8064 236.536 76.8064C236.042 76.8064 235.591 76.7179 235.182 76.541C234.776 76.3604 234.424 76.1006 234.126 75.7616C233.827 75.4226 233.595 75.0117 233.429 74.5289C233.267 74.0461 233.186 73.5007 233.186 72.8927V72.4504C233.186 71.8424 233.267 71.2988 233.429 70.8197C233.591 70.337 233.82 69.9261 234.115 69.587C234.413 69.2443 234.765 68.9845 235.171 68.8076C235.58 68.627 236.031 68.5368 236.525 68.5368C237.022 68.5368 237.476 68.627 237.885 68.8076C238.294 68.9845 238.646 69.2443 238.941 69.587C239.235 69.9261 239.462 70.337 239.62 70.8197C239.783 71.2988 239.864 71.8424 239.864 72.4504ZM238.476 72.8927V72.4394C238.476 71.9898 238.432 71.5936 238.344 71.2509C238.259 70.9045 238.132 70.6152 237.962 70.383C237.796 70.1472 237.592 69.9703 237.349 69.8524C237.105 69.7308 236.831 69.67 236.525 69.67C236.219 69.67 235.946 69.7308 235.707 69.8524C235.467 69.9703 235.263 70.1472 235.093 70.383C234.927 70.6152 234.8 70.9045 234.712 71.2509C234.623 71.5936 234.579 71.9898 234.579 72.4394V72.8927C234.579 73.3423 234.623 73.7403 234.712 74.0867C234.8 74.4331 234.929 74.7261 235.099 74.9656C235.272 75.2015 235.478 75.3802 235.718 75.5018C235.957 75.6197 236.23 75.6787 236.536 75.6787C236.845 75.6787 237.12 75.6197 237.36 75.5018C237.599 75.3802 237.802 75.2015 237.968 74.9656C238.133 74.7261 238.259 74.4331 238.344 74.0867C238.432 73.7403 238.476 73.3423 238.476 72.8927ZM247.184 74.6229C247.184 74.457 247.158 74.3096 247.106 74.1806C247.058 74.0517 246.972 73.9337 246.846 73.8269C246.721 73.72 246.544 73.6168 246.316 73.5173C246.091 73.4141 245.803 73.3091 245.453 73.2022C245.07 73.0843 244.716 72.9535 244.392 72.8098C244.071 72.6623 243.791 72.4928 243.552 72.3012C243.312 72.1059 243.126 71.8829 242.994 71.6323C242.861 71.3781 242.795 71.0851 242.795 70.7534C242.795 70.4254 242.863 70.1269 242.999 69.8579C243.139 69.5889 243.336 69.3567 243.591 69.1614C243.848 68.9624 244.153 68.8095 244.503 68.7026C244.853 68.592 245.24 68.5368 245.663 68.5368C246.26 68.5368 246.775 68.6473 247.206 68.8684C247.641 69.0895 247.974 69.3862 248.206 69.7584C248.442 70.1306 248.56 70.5415 248.56 70.9911H247.184C247.184 70.7258 247.126 70.4918 247.012 70.2891C246.902 70.0827 246.732 69.9206 246.504 69.8026C246.279 69.6847 245.993 69.6257 245.647 69.6257C245.319 69.6257 245.046 69.6755 244.829 69.775C244.611 69.8745 244.449 70.009 244.342 70.1785C244.235 70.348 244.182 70.5397 244.182 70.7534C244.182 70.9045 244.217 71.0427 244.287 71.168C244.357 71.2896 244.464 71.4038 244.608 71.5107C244.751 71.6139 244.932 71.7116 245.149 71.8037C245.367 71.8958 245.623 71.9843 245.918 72.069C246.364 72.2017 246.752 72.3491 247.084 72.5113C247.416 72.6697 247.692 72.8503 247.913 73.053C248.134 73.2557 248.3 73.486 248.411 73.744C248.521 73.9982 248.577 74.2875 248.577 74.6118C248.577 74.9509 248.508 75.2567 248.372 75.5294C248.236 75.7985 248.04 76.0288 247.786 76.2204C247.536 76.4084 247.233 76.5539 246.88 76.6571C246.529 76.7566 246.139 76.8064 245.708 76.8064C245.321 76.8064 244.939 76.7548 244.563 76.6516C244.191 76.5484 243.852 76.3918 243.546 76.1817C243.24 75.968 242.997 75.7026 242.817 75.3857C242.636 75.0651 242.546 74.6911 242.546 74.2636H243.933C243.933 74.5252 243.977 74.7482 244.066 74.9324C244.158 75.1167 244.285 75.2678 244.447 75.3857C244.609 75.5 244.797 75.5847 245.011 75.64C245.229 75.6953 245.461 75.7229 245.708 75.7229C246.032 75.7229 246.303 75.6768 246.52 75.5847C246.741 75.4926 246.907 75.3636 247.018 75.1978C247.128 75.0319 247.184 74.8403 247.184 74.6229ZM258.357 76.6958H256.638L256.649 75.5958H258.357C258.855 75.5958 259.271 75.4871 259.607 75.2696C259.946 75.0522 260.2 74.7408 260.37 74.3354C260.543 73.9301 260.629 73.4473 260.629 72.8871V72.4504C260.629 72.0156 260.58 71.6305 260.48 71.2951C260.384 70.9598 260.241 70.6779 260.049 70.4494C259.861 70.2209 259.629 70.0477 259.352 69.9298C259.08 69.8118 258.765 69.7529 258.407 69.7529H256.605V68.6473H258.407C258.942 68.6473 259.43 68.7376 259.872 68.9182C260.314 69.0951 260.696 69.3512 261.016 69.6865C261.341 70.0219 261.589 70.4236 261.763 70.8916C261.936 71.3596 262.022 71.8829 262.022 72.4615V72.8871C262.022 73.4657 261.936 73.989 261.763 74.457C261.589 74.9251 261.341 75.3267 261.016 75.6621C260.692 75.9938 260.305 76.2499 259.856 76.4305C259.41 76.6074 258.91 76.6958 258.357 76.6958ZM257.407 68.6473V76.6958H256.019V68.6473H257.407ZM270.382 75.5958V76.6958H266.109V75.5958H270.382ZM266.501 68.6473V76.6958H265.114V68.6473H266.501ZM269.823 72.0082V73.0917H266.109V72.0082H269.823ZM270.354 68.6473V69.7529H266.109V68.6473H270.354ZM282.484 74.0756H283.866C283.822 74.6026 283.674 75.0725 283.424 75.4852C283.173 75.8943 282.821 76.2167 282.368 76.4526C281.915 76.6884 281.364 76.8064 280.715 76.8064C280.218 76.8064 279.77 76.7179 279.372 76.541C278.974 76.3604 278.633 76.1062 278.349 75.7782C278.066 75.4465 277.848 75.0467 277.697 74.5787C277.55 74.1106 277.476 73.5873 277.476 73.0088V72.3399C277.476 71.7613 277.551 71.238 277.703 70.77C277.857 70.302 278.078 69.9021 278.366 69.5705C278.653 69.2351 278.998 68.979 279.4 68.8021C279.805 68.6252 280.26 68.5368 280.765 68.5368C281.406 68.5368 281.948 68.6547 282.39 68.8905C282.832 69.1264 283.175 69.4525 283.418 69.869C283.665 70.2854 283.816 70.7626 283.872 71.3007H282.49C282.453 70.9543 282.372 70.6576 282.246 70.4107C282.125 70.1638 281.944 69.9758 281.705 69.8469C281.465 69.7142 281.152 69.6478 280.765 69.6478C280.448 69.6478 280.172 69.7068 279.936 69.8247C279.7 69.9427 279.503 70.1159 279.344 70.3444C279.186 70.5728 279.066 70.8548 278.985 71.1901C278.908 71.5218 278.869 71.9014 278.869 72.3288V73.0088C278.869 73.4141 278.904 73.7826 278.974 74.1143C279.048 74.4423 279.158 74.7242 279.306 74.9601C279.457 75.1959 279.648 75.3783 279.881 75.5073C280.113 75.6363 280.391 75.7008 280.715 75.7008C281.11 75.7008 281.428 75.6381 281.672 75.5129C281.918 75.3876 282.105 75.2051 282.23 74.9656C282.359 74.7224 282.444 74.4257 282.484 74.0756ZM293.242 72.4504V72.8927C293.242 73.5007 293.163 74.0461 293.005 74.5289C292.846 75.0117 292.62 75.4226 292.325 75.7616C292.034 76.1006 291.684 76.3604 291.274 76.541C290.865 76.7179 290.412 76.8064 289.915 76.8064C289.421 76.8064 288.969 76.7179 288.56 76.541C288.155 76.3604 287.803 76.1006 287.505 75.7616C287.206 75.4226 286.974 75.0117 286.808 74.5289C286.646 74.0461 286.565 73.5007 286.565 72.8927V72.4504C286.565 71.8424 286.646 71.2988 286.808 70.8197C286.97 70.337 287.199 69.9261 287.493 69.587C287.792 69.2443 288.144 68.9845 288.549 68.8076C288.958 68.627 289.41 68.5368 289.904 68.5368C290.401 68.5368 290.854 68.627 291.263 68.8076C291.672 68.9845 292.024 69.2443 292.319 69.587C292.614 69.9261 292.841 70.337 292.999 70.8197C293.161 71.2988 293.242 71.8424 293.242 72.4504ZM291.855 72.8927V72.4394C291.855 71.9898 291.811 71.5936 291.722 71.2509C291.637 70.9045 291.51 70.6152 291.341 70.383C291.175 70.1472 290.97 69.9703 290.727 69.8524C290.484 69.7308 290.209 69.67 289.904 69.67C289.598 69.67 289.325 69.7308 289.085 69.8524C288.846 69.9703 288.641 70.1472 288.472 70.383C288.306 70.6152 288.179 70.9045 288.09 71.2509C288.002 71.5936 287.958 71.9898 287.958 72.4394V72.8927C287.958 73.3423 288.002 73.7403 288.09 74.0867C288.179 74.4331 288.308 74.7261 288.477 74.9656C288.651 75.2015 288.857 75.3802 289.097 75.5018C289.336 75.6197 289.609 75.6787 289.915 75.6787C290.224 75.6787 290.499 75.6197 290.738 75.5018C290.978 75.3802 291.18 75.2015 291.346 74.9656C291.512 74.7261 291.637 74.4331 291.722 74.0867C291.811 73.7403 291.855 73.3423 291.855 72.8927ZM302.713 68.6473V76.6958H301.325L297.715 70.9303V76.6958H296.328V68.6473H297.715L301.336 74.4239V68.6473H302.713ZM307.451 68.6473V76.6958H306.064V68.6473H307.451ZM310.735 72.1685V73.2686H307.097V72.1685H310.735ZM311.193 68.6473V69.7529H307.097V68.6473H311.193ZM318.513 68.6473H319.895V74.0259C319.895 74.6376 319.763 75.1499 319.497 75.5626C319.232 75.9753 318.871 76.2867 318.414 76.4968C317.961 76.7032 317.454 76.8064 316.894 76.8064C316.315 76.8064 315.799 76.7032 315.346 76.4968C314.893 76.2867 314.535 75.9753 314.273 75.5626C314.015 75.1499 313.887 74.6376 313.887 74.0259V68.6473H315.268V74.0259C315.268 74.4128 315.335 74.7316 315.467 74.9822C315.6 75.2291 315.788 75.4115 316.031 75.5294C316.275 75.6474 316.562 75.7063 316.894 75.7063C317.225 75.7063 317.511 75.6474 317.75 75.5294C317.994 75.4115 318.182 75.2291 318.314 74.9822C318.447 74.7316 318.513 74.4128 318.513 74.0259V68.6473ZM327.337 74.6229C327.337 74.457 327.311 74.3096 327.259 74.1806C327.211 74.0517 327.125 73.9337 327 73.8269C326.874 73.72 326.697 73.6168 326.469 73.5173C326.244 73.4141 325.957 73.3091 325.607 73.2022C325.223 73.0843 324.87 72.9535 324.545 72.8098C324.225 72.6623 323.945 72.4928 323.705 72.3012C323.465 72.1059 323.279 71.8829 323.147 71.6323C323.014 71.3781 322.948 71.0851 322.948 70.7534C322.948 70.4254 323.016 70.1269 323.152 69.8579C323.292 69.5889 323.489 69.3567 323.744 69.1614C324.002 68.9624 324.306 68.8095 324.656 68.7026C325.006 68.592 325.393 68.5368 325.817 68.5368C326.414 68.5368 326.928 68.6473 327.359 68.8684C327.794 69.0895 328.127 69.3862 328.359 69.7584C328.595 70.1306 328.713 70.5415 328.713 70.9911H327.337C327.337 70.7258 327.28 70.4918 327.165 70.2891C327.055 70.0827 326.885 69.9206 326.657 69.8026C326.432 69.6847 326.146 69.6257 325.8 69.6257C325.472 69.6257 325.199 69.6755 324.982 69.775C324.765 69.8745 324.602 70.009 324.495 70.1785C324.389 70.348 324.335 70.5397 324.335 70.7534C324.335 70.9045 324.37 71.0427 324.44 71.168C324.51 71.2896 324.617 71.4038 324.761 71.5107C324.905 71.6139 325.085 71.7116 325.303 71.8037C325.52 71.8958 325.776 71.9843 326.071 72.069C326.517 72.2017 326.906 72.3491 327.237 72.5113C327.569 72.6697 327.845 72.8503 328.066 73.053C328.288 73.2557 328.453 73.486 328.564 73.744C328.675 73.9982 328.73 74.2875 328.73 74.6118C328.73 74.9509 328.662 75.2567 328.525 75.5294C328.389 75.7985 328.194 76.0288 327.939 76.2204C327.689 76.4084 327.387 76.5539 327.033 76.6571C326.683 76.7566 326.292 76.8064 325.861 76.8064C325.474 76.8064 325.092 76.7548 324.717 76.6516C324.344 76.5484 324.005 76.3918 323.699 76.1817C323.394 75.968 323.15 75.7026 322.97 75.3857C322.789 75.0651 322.699 74.6911 322.699 74.2636H324.086C324.086 74.5252 324.131 74.7482 324.219 74.9324C324.311 75.1167 324.438 75.2678 324.601 75.3857C324.763 75.5 324.951 75.5847 325.164 75.64C325.382 75.6953 325.614 75.7229 325.861 75.7229C326.185 75.7229 326.456 75.6768 326.673 75.5847C326.895 75.4926 327.06 75.3636 327.171 75.1978C327.281 75.0319 327.337 74.8403 327.337 74.6229ZM334.789 69.7197L332.385 76.6958H330.931L333.96 68.6473H334.889L334.789 69.7197ZM336.801 76.6958L334.391 69.7197L334.286 68.6473H335.221L338.261 76.6958H336.801ZM336.685 73.7108V74.8108H332.307V73.7108H336.685ZM335.818 66.5578L336.63 66.6186C336.63 66.8876 336.577 67.129 336.47 67.3428C336.363 67.5528 336.217 67.7186 336.033 67.8403C335.849 67.9619 335.641 68.0227 335.408 68.0227C335.228 68.0227 335.075 67.9969 334.95 67.9453C334.824 67.8937 334.71 67.8347 334.607 67.7684C334.504 67.7021 334.397 67.6449 334.286 67.597C334.179 67.5454 334.052 67.5196 333.905 67.5196C333.765 67.5196 333.645 67.5712 333.546 67.6744C333.45 67.7776 333.402 67.9158 333.402 68.089L332.584 68.0448C332.584 67.7795 332.637 67.5399 332.744 67.3262C332.851 67.1124 332.997 66.9429 333.181 66.8176C333.365 66.6923 333.573 66.6297 333.805 66.6297C333.956 66.6297 334.093 66.6555 334.214 66.7071C334.34 66.755 334.458 66.8121 334.568 66.8784C334.682 66.9448 334.799 67.0037 334.916 67.0553C335.034 67.1069 335.165 67.1327 335.309 67.1327C335.449 67.1327 335.569 67.0793 335.668 66.9724C335.768 66.8655 335.818 66.7273 335.818 66.5578ZM347.189 72.4504V72.8927C347.189 73.5007 347.11 74.0461 346.952 74.5289C346.793 75.0117 346.567 75.4226 346.272 75.7616C345.981 76.1006 345.63 76.3604 345.221 76.541C344.812 76.7179 344.359 76.8064 343.862 76.8064C343.368 76.8064 342.916 76.7179 342.507 76.541C342.102 76.3604 341.75 76.1006 341.451 75.7616C341.153 75.4226 340.921 75.0117 340.755 74.5289C340.593 74.0461 340.512 73.5007 340.512 72.8927V72.4504C340.512 71.8424 340.593 71.2988 340.755 70.8197C340.917 70.337 341.146 69.9261 341.44 69.587C341.739 69.2443 342.091 68.9845 342.496 68.8076C342.905 68.627 343.357 68.5368 343.851 68.5368C344.348 68.5368 344.801 68.627 345.21 68.8076C345.619 68.9845 345.971 69.2443 346.266 69.587C346.561 69.9261 346.788 70.337 346.946 70.8197C347.108 71.2988 347.189 71.8424 347.189 72.4504ZM345.802 72.8927V72.4394C345.802 71.9898 345.758 71.5936 345.669 71.2509C345.584 70.9045 345.457 70.6152 345.288 70.383C345.122 70.1472 344.917 69.9703 344.674 69.8524C344.431 69.7308 344.156 69.67 343.851 69.67C343.545 69.67 343.272 69.7308 343.032 69.8524C342.793 69.9703 342.588 70.1472 342.419 70.383C342.253 70.6152 342.126 70.9045 342.037 71.2509C341.949 71.5936 341.905 71.9898 341.905 72.4394V72.8927C341.905 73.3423 341.949 73.7403 342.037 74.0867C342.126 74.4331 342.255 74.7261 342.424 74.9656C342.598 75.2015 342.804 75.3802 343.043 75.5018C343.283 75.6197 343.556 75.6787 343.862 75.6787C344.171 75.6787 344.446 75.6197 344.685 75.5018C344.925 75.3802 345.127 75.2015 345.293 74.9656C345.459 74.7261 345.584 74.4331 345.669 74.0867C345.758 73.7403 345.802 73.3423 345.802 72.8927Z" fill="url(#paint1_linear_22_17)" fill-opacity="0.2"/>
<defs>
<linearGradient id="paint0_linear_22_17" x1="220.279" y1="47.896" x2="220.279" y2="97.396" gradientUnits="userSpaceOnUse">
<stop offset="0.55" stop-color="#EEECFF"/>
<stop offset="1" stop-color="#0D011D"/>
</linearGradient>
<linearGradient id="paint1_linear_22_17" x1="14.0898" y1="72.6958" x2="348.09" y2="72.6958" gradientUnits="userSpaceOnUse">
<stop stop-opacity="0"/>
<stop offset="1"/>
</linearGradient>
<clipPath id="clip0_22_17">
<rect width="347.761" height="58.8686" fill="white"/>
</clipPath>
</defs>
</svg>
