<svg width="230" height="121" viewBox="0 0 230 121" fill="none" xmlns="http://www.w3.org/2000/svg">
<g clip-path="url(#clip0_55_1401)">
<circle cx="114.791" cy="109.864" r="109.754" fill="#25B1FF" fill-opacity="0.2"/>
<circle cx="114.791" cy="109.864" r="95.4836" fill="#25B1FF" fill-opacity="0.2"/>
<circle cx="114.79" cy="109.864" r="79.9544" fill="#25B1FF" fill-opacity="0.2"/>
<circle cx="114.79" cy="109.864" r="65.6843" fill="#25B1FF" fill-opacity="0.2"/>
<circle cx="114.791" cy="109.932" r="49.3157" fill="white"/>
<g filter="url(#filter0_dd_55_1401)">
<path fill-rule="evenodd" clip-rule="evenodd" d="M114.163 77.554C113.366 77.7673 112.76 78.3033 112.356 79.1501C112.097 79.6949 111.937 79.8146 111.393 79.8735C110.474 79.9728 109.615 80.5967 109.21 81.4584C109.03 81.8398 108.998 82.0041 108.998 82.5444C108.998 83.0849 109.03 83.2488 109.21 83.6303C109.536 84.3226 110.131 84.87 110.791 85.085L111.074 85.1772V86.8566V88.5358H109.39H107.705L107.526 88.1052C107.283 87.5218 106.736 86.9616 106.147 86.6919C105.746 86.5087 105.582 86.4769 105.035 86.4769C104.491 86.4769 104.324 86.509 103.933 86.6881C103.083 87.0773 102.443 87.9467 102.344 88.8483C102.284 89.3939 102.164 89.5505 101.608 89.8112C100.928 90.1299 100.483 90.5467 100.189 91.1407C99.9556 91.6101 99.9404 91.689 99.9404 92.4302C99.9404 93.1714 99.9556 93.2504 100.189 93.7197C100.483 94.3138 100.928 94.7306 101.608 95.0492C102.164 95.31 102.284 95.4666 102.344 96.0121C102.443 96.9138 103.083 97.7832 103.933 98.1723C104.324 98.3515 104.491 98.3835 105.035 98.3835C105.582 98.3835 105.746 98.3518 106.147 98.1686C106.736 97.8989 107.283 97.3386 107.526 96.7553L107.705 96.3247H109.39H111.074V102.198V108.071L110.791 108.163C110.131 108.379 109.536 108.926 109.21 109.618C109.03 110 108.998 110.164 108.998 110.704C108.998 111.244 109.03 111.409 109.21 111.79C109.615 112.652 110.474 113.276 111.393 113.375C111.937 113.434 112.097 113.554 112.356 114.098C112.887 115.212 113.794 115.795 114.999 115.795C116.204 115.795 117.111 115.212 117.642 114.098C117.903 113.55 118.06 113.434 118.621 113.373C119.517 113.276 120.39 112.632 120.799 111.766C120.968 111.407 120.999 111.241 120.997 110.704C120.995 110.168 120.96 109.994 120.78 109.602C120.511 109.017 119.948 108.475 119.358 108.233L118.924 108.055V102.19V96.3247H120.617H122.309L122.402 96.6055C122.619 97.2607 123.17 97.8511 123.868 98.1744C124.253 98.3525 124.418 98.3842 124.963 98.3842C125.5 98.3842 125.674 98.3517 126.033 98.185C126.906 97.7785 127.538 96.9386 127.645 96.0422C127.714 95.4601 127.827 95.3129 128.419 95.0366C129.078 94.7284 129.645 94.1597 129.876 93.5759C130.122 92.9542 130.12 91.901 129.871 91.2717C129.64 90.6862 129.091 90.1395 128.419 89.8244C127.827 89.5474 127.714 89.4003 127.645 88.8182C127.538 87.9219 126.906 87.082 126.033 86.6755C125.674 86.5088 125.5 86.4763 124.963 86.4763C124.418 86.4763 124.253 86.5079 123.868 86.6861C123.17 87.0094 122.619 87.5997 122.402 88.255L122.309 88.5358H120.617H118.924V86.8645V85.1932L119.358 85.0152C119.948 84.7732 120.511 84.2315 120.78 83.647C120.96 83.2547 120.995 83.0803 120.997 82.5444C120.999 82.0078 120.968 81.841 120.799 81.4828C120.39 80.6165 119.517 79.9726 118.621 79.8753C118.06 79.8145 117.903 79.6981 117.642 79.1501C117.229 78.2842 116.649 77.7797 115.811 77.5584C115.33 77.4311 114.63 77.4293 114.163 77.554ZM115.548 78.7293C115.952 78.8406 116.319 79.19 116.552 79.6848C116.971 80.5743 117.407 80.9182 118.27 81.0395C118.996 81.1415 119.389 81.3903 119.646 81.9104C119.819 82.2608 119.843 82.3856 119.804 82.7151C119.717 83.4423 119.22 83.9062 118.389 84.0366C117.694 84.1457 117.716 84.0502 117.716 86.8998V89.3664L117.902 89.5502L118.087 89.7341H120.573C123.465 89.7341 123.358 89.76 123.457 89.0364C123.564 88.2564 124.059 87.7491 124.797 87.6623C125.122 87.6241 125.251 87.6494 125.602 87.8198C126.126 88.0742 126.377 88.4641 126.479 89.1845C126.602 90.041 126.948 90.4737 127.845 90.8894C128.539 91.2113 128.887 91.7256 128.887 92.4302C128.887 93.1349 128.539 93.6492 127.845 93.9711C126.948 94.3867 126.602 94.8195 126.479 95.676C126.377 96.3964 126.126 96.7862 125.602 97.0407C125.251 97.2111 125.122 97.2363 124.797 97.1981C124.059 97.1114 123.564 96.6041 123.457 95.8241C123.358 95.1005 123.465 95.1264 120.573 95.1264H118.087L117.902 95.3102L117.716 95.494V102.155C117.716 109.753 117.654 109.097 118.389 109.212C119.22 109.342 119.717 109.806 119.804 110.533C119.843 110.863 119.819 110.988 119.646 111.338C119.389 111.858 118.996 112.107 118.27 112.209C117.407 112.33 116.971 112.674 116.552 113.564C116.228 114.253 115.709 114.598 114.999 114.598C114.288 114.598 113.733 114.226 113.433 113.55C113.057 112.703 112.59 112.331 111.75 112.211C111.104 112.118 110.913 112.037 110.593 111.72C109.719 110.853 110.275 109.377 111.531 109.229C111.807 109.197 111.991 109.127 112.109 109.01L112.282 108.839V102.166V95.494L112.096 95.3102L111.911 95.1264H109.425C106.553 95.1264 106.649 95.1041 106.539 95.7937C106.454 96.3318 106.25 96.6964 105.897 96.9423C105.319 97.3446 104.497 97.2832 104.011 96.8014C103.692 96.4846 103.61 96.2953 103.517 95.654C103.396 94.8204 103.041 94.3825 102.153 93.9711C101.459 93.6492 101.111 93.1349 101.111 92.4302C101.111 91.7256 101.459 91.2113 102.153 90.8894C103.041 90.478 103.396 90.04 103.517 89.2065C103.61 88.5652 103.692 88.3759 104.011 88.059C104.497 87.5773 105.319 87.5158 105.897 87.9182C106.25 88.1641 106.454 88.5287 106.539 89.0668C106.649 89.7563 106.553 89.7341 109.425 89.7341H111.911L112.096 89.5502L112.282 89.3664V86.8882V84.4099L112.109 84.2384C111.992 84.1221 111.807 84.0517 111.537 84.02C111.318 83.9942 111.02 83.9003 110.875 83.8113C110.085 83.3266 109.942 82.1743 110.593 81.5282C110.913 81.2114 111.104 81.1305 111.75 81.0378C112.581 80.9185 113.053 80.5421 113.439 79.6886C113.825 78.8351 114.62 78.4736 115.548 78.7293ZM114.58 80.0321C114.206 80.4036 114.471 81.0465 114.999 81.0465C115.309 81.0465 115.603 80.7553 115.603 80.4474C115.603 80.1395 115.309 79.8482 114.999 79.8482C114.852 79.8482 114.697 79.9162 114.58 80.0321ZM111.716 81.9608C111.488 82.0902 111.381 82.259 111.378 82.4916C111.375 82.7733 111.68 83.0686 111.973 83.0686C112.686 83.0686 113.631 83.7507 113.986 84.5212C114.208 85.003 114.392 85.809 114.394 86.3111C114.395 86.7518 114.634 87.038 114.999 87.038C115.377 87.038 115.603 86.7537 115.604 86.2737C115.607 85.2711 116.036 84.1952 116.643 83.6649C117.002 83.3512 117.657 83.0686 118.025 83.0686C118.288 83.0686 118.622 82.7792 118.622 82.5513C118.622 82.2918 118.459 82.0335 118.239 81.9428C117.796 81.7606 116.836 82.044 116.113 82.5708C115.764 82.8246 115.584 83.0144 115.11 83.6303C114.996 83.7785 114.993 83.7781 114.866 83.5929C114.592 83.1957 113.937 82.5713 113.552 82.3416C113.146 82.0991 112.411 81.8684 112.058 81.8726C111.953 81.8739 111.799 81.9136 111.716 81.9608ZM114.58 88.4201C114.395 88.6039 114.395 88.6041 114.395 90.2175V91.8311H112.467H110.539L110.353 92.015C110.108 92.2581 110.108 92.6023 110.353 92.8455L110.539 93.0294H112.467H114.395V99.1365V105.244L114.58 105.428C114.697 105.543 114.852 105.611 114.999 105.611C115.146 105.611 115.301 105.543 115.418 105.428L115.603 105.244V99.1365V93.0294H117.531H119.459L119.645 92.8455C119.89 92.6023 119.89 92.2581 119.645 92.015L119.459 91.8311H117.531H115.603V90.2175C115.603 88.6041 115.603 88.6039 115.418 88.4201C115.301 88.3042 115.146 88.2362 114.999 88.2362C114.852 88.2362 114.697 88.3042 114.58 88.4201ZM104.686 88.923C104.347 89.0858 104.279 89.5495 104.467 90.4291C104.611 91.1017 104.903 91.6142 105.397 92.0624L105.802 92.4302L105.383 92.8105C104.846 93.2973 104.536 93.9098 104.418 94.7152C104.37 95.0452 104.354 95.4066 104.382 95.5182C104.498 95.9756 104.995 96.1656 105.343 95.8856C105.485 95.7718 105.527 95.6421 105.571 95.1815C105.601 94.8709 105.691 94.4703 105.772 94.2912C105.93 93.939 106.31 93.5292 106.636 93.36C106.942 93.2007 107.739 93.0317 108.19 93.0305C108.674 93.0292 108.96 92.8059 108.96 92.4302C108.96 92.0678 108.672 91.8314 108.228 91.8298C107.78 91.8282 106.933 91.6546 106.646 91.5058C106.021 91.1814 105.656 90.5608 105.571 89.679C105.527 89.2184 105.485 89.0887 105.343 88.9749C105.152 88.8214 104.933 88.8041 104.686 88.923ZM124.62 89.0192C124.48 89.1577 124.434 89.2829 124.434 89.5272C124.434 89.9747 124.266 90.577 124.055 90.8818C123.667 91.4443 122.746 91.8263 121.77 91.8298C121.326 91.8314 121.038 92.0678 121.038 92.4302C121.038 92.8059 121.324 93.0292 121.808 93.0305C122.259 93.0317 123.056 93.2007 123.362 93.36C123.687 93.5284 124.068 93.9384 124.224 94.2862C124.303 94.4626 124.388 94.8488 124.413 95.1444C124.478 95.9077 124.773 96.1759 125.29 95.942C125.626 95.7902 125.715 95.3768 125.571 94.6286C125.423 93.8536 125.188 93.3895 124.693 92.8983L124.222 92.4302L124.693 91.9622C125.188 91.4709 125.423 91.0069 125.571 90.2319C125.715 89.4837 125.626 89.0702 125.29 88.9185C125.007 88.7905 124.822 88.8184 124.62 89.0192ZM102.503 92.015C102.387 92.1308 102.318 92.2843 102.318 92.4302C102.318 92.5761 102.387 92.7297 102.503 92.8455C102.62 92.9614 102.775 93.0294 102.922 93.0294C103.069 93.0294 103.224 92.9614 103.34 92.8455C103.457 92.7297 103.526 92.5761 103.526 92.4302C103.526 92.2843 103.457 92.1308 103.34 92.015C103.224 91.899 103.069 91.8311 102.922 91.8311C102.775 91.8311 102.62 91.899 102.503 92.015ZM126.658 92.015C126.283 92.3864 126.548 93.0294 127.076 93.0294C127.386 93.0294 127.68 92.7381 127.68 92.4302C127.68 92.1224 127.386 91.8311 127.076 91.8311C126.929 91.8311 126.774 91.899 126.658 92.015ZM114.58 106.994C114.44 107.132 114.395 107.257 114.395 107.504C114.395 107.975 114.254 108.663 114.084 109.023C113.754 109.718 113.169 110.084 112.264 110.159C111.838 110.195 111.685 110.241 111.549 110.376C111.222 110.7 111.406 111.233 111.887 111.352C112.229 111.438 113.231 111.251 113.749 111.006C114.069 110.854 114.359 110.638 114.614 110.361L114.999 109.943L115.384 110.361C115.824 110.839 116.449 111.171 117.145 111.297C117.983 111.449 118.381 111.372 118.538 111.029C118.774 110.516 118.504 110.223 117.734 110.159C116.396 110.048 115.731 109.301 115.623 107.79C115.586 107.261 115.549 107.124 115.405 106.981C115.173 106.75 114.82 106.756 114.58 106.994ZM114.58 112.386C114.206 112.757 114.471 113.4 114.999 113.4C115.146 113.4 115.301 113.332 115.418 113.216C115.534 113.101 115.603 112.947 115.603 112.801C115.603 112.655 115.534 112.502 115.418 112.386C115.301 112.27 115.146 112.202 114.999 112.202C114.852 112.202 114.697 112.27 114.58 112.386Z" fill="#25B1FF"/>
</g>
</g>
<defs>
<filter id="filter0_dd_55_1401" x="80.0892" y="57.6105" width="69.8215" height="78.0356" filterUnits="userSpaceOnUse" color-interpolation-filters="sRGB">
<feFlood flood-opacity="0" result="BackgroundImageFix"/>
<feColorMatrix in="SourceAlpha" type="matrix" values="0 0 0 0 0 0 0 0 0 0 0 0 0 0 0 0 0 0 127 0" result="hardAlpha"/>
<feOffset/>
<feGaussianBlur stdDeviation="1.36905"/>
<feColorMatrix type="matrix" values="0 0 0 0 0.14611 0 0 0 0 0.6926 0 0 0 0 1 0 0 0 1 0"/>
<feBlend mode="normal" in2="BackgroundImageFix" result="effect1_dropShadow_55_1401"/>
<feColorMatrix in="SourceAlpha" type="matrix" values="0 0 0 0 0 0 0 0 0 0 0 0 0 0 0 0 0 0 127 0" result="hardAlpha"/>
<feOffset/>
<feGaussianBlur stdDeviation="9.9256"/>
<feColorMatrix type="matrix" values="0 0 0 0 0.14611 0 0 0 0 0.6926 0 0 0 0 1 0 0 0 1 0"/>
<feBlend mode="normal" in2="effect1_dropShadow_55_1401" result="effect2_dropShadow_55_1401"/>
<feBlend mode="normal" in="SourceGraphic" in2="effect2_dropShadow_55_1401" result="shape"/>
</filter>
<clipPath id="clip0_55_1401">
<rect width="230" height="121" fill="white"/>
</clipPath>
</defs>
</svg>
