<svg width="16" height="15" viewBox="0 0 16 15" fill="none" xmlns="http://www.w3.org/2000/svg">
<path d="M6.1625 10.3049C6.55303 10.6954 7.18619 10.6954 7.57672 10.3049L11.3146 6.56699C11.5852 6.29637 11.5852 5.85761 11.3146 5.58699C11.044 5.31637 10.6052 5.31637 10.3346 5.58699L7.57672 8.34489C7.18619 8.73541 6.55303 8.73541 6.1625 8.34489L5.36461 7.54699C5.09399 7.27637 4.65523 7.27637 4.38461 7.54699C4.11399 7.81761 4.11399 8.25637 4.38461 8.52699L6.1625 10.3049ZM7.84961 14.792C6.88128 14.792 5.97128 14.6082 5.11961 14.2407C4.26794 13.8732 3.52711 13.3745 2.89711 12.7445C2.26711 12.1145 1.76836 11.3737 1.40086 10.522C1.03336 9.67033 0.849609 8.76033 0.849609 7.79199C0.849609 6.82366 1.03336 5.91366 1.40086 5.06199C1.76836 4.21033 2.26711 3.46949 2.89711 2.83949C3.52711 2.20949 4.26794 1.71074 5.11961 1.34324C5.97128 0.975742 6.88128 0.791992 7.84961 0.791992C8.81794 0.791992 9.72794 0.975742 10.5796 1.34324C11.4313 1.71074 12.1721 2.20949 12.8021 2.83949C13.4321 3.46949 13.9309 4.21033 14.2984 5.06199C14.6659 5.91366 14.8496 6.82366 14.8496 7.79199C14.8496 8.76033 14.6659 9.67033 14.2984 10.522C13.9309 11.3737 13.4321 12.1145 12.8021 12.7445C12.1721 13.3745 11.4313 13.8732 10.5796 14.2407C9.72794 14.6082 8.81794 14.792 7.84961 14.792Z" fill="url(#paint0_linear_15_171)"/>
<path d="M6.1625 10.3049C6.55303 10.6954 7.18619 10.6954 7.57672 10.3049L11.3146 6.56699C11.5852 6.29637 11.5852 5.85761 11.3146 5.58699C11.044 5.31637 10.6052 5.31637 10.3346 5.58699L7.57672 8.34489C7.18619 8.73541 6.55303 8.73541 6.1625 8.34489L5.36461 7.54699C5.09399 7.27637 4.65523 7.27637 4.38461 7.54699C4.11399 7.81761 4.11399 8.25637 4.38461 8.52699L6.1625 10.3049ZM7.84961 14.792C6.88128 14.792 5.97128 14.6082 5.11961 14.2407C4.26794 13.8732 3.52711 13.3745 2.89711 12.7445C2.26711 12.1145 1.76836 11.3737 1.40086 10.522C1.03336 9.67033 0.849609 8.76033 0.849609 7.79199C0.849609 6.82366 1.03336 5.91366 1.40086 5.06199C1.76836 4.21033 2.26711 3.46949 2.89711 2.83949C3.52711 2.20949 4.26794 1.71074 5.11961 1.34324C5.97128 0.975742 6.88128 0.791992 7.84961 0.791992C8.81794 0.791992 9.72794 0.975742 10.5796 1.34324C11.4313 1.71074 12.1721 2.20949 12.8021 2.83949C13.4321 3.46949 13.9309 4.21033 14.2984 5.06199C14.6659 5.91366 14.8496 6.82366 14.8496 7.79199C14.8496 8.76033 14.6659 9.67033 14.2984 10.522C13.9309 11.3737 13.4321 12.1145 12.8021 12.7445C12.1721 13.3745 11.4313 13.8732 10.5796 14.2407C9.72794 14.6082 8.81794 14.792 7.84961 14.792Z" fill="url(#paint1_linear_15_171)" fill-opacity="0.44"/>
<defs>
<linearGradient id="paint0_linear_15_171" x1="4.84961" y1="0.791992" x2="9.84961" y2="14.292" gradientUnits="userSpaceOnUse">
<stop stop-color="#FF1A1A"/>
<stop offset="0.475" stop-color="#E79C38"/>
<stop offset="1" stop-color="#7E1793"/>
</linearGradient>
<linearGradient id="paint1_linear_15_171" x1="0.572526" y1="-14.6299" x2="16.1366" y2="-13.8655" gradientUnits="userSpaceOnUse">
<stop stop-color="#FF0000"/>
<stop offset="0.345" stop-color="#FFB525"/>
<stop offset="0.745" stop-color="#25B1FF"/>
<stop offset="0.96" stop-color="#9748FF"/>
</linearGradient>
</defs>
</svg>
